<mxfile host="Electron" agent="Mozilla/5.0 (Windows NT 10.0; Win64; x64) AppleWebKit/537.36 (KHTML, like Gecko) draw.io/26.2.2 Chrome/134.0.6998.178 Electron/35.1.2 Safari/537.36" version="26.2.2">
  <diagram name="Industry_duplicates" id="c243AX7W6UdLh2k6O0l3">
    <mxGraphModel dx="1099" dy="667" grid="1" gridSize="10" guides="1" tooltips="1" connect="1" arrows="1" fold="1" page="1" pageScale="1" pageWidth="2339" pageHeight="3300" math="0" shadow="0">
      <root>
        <mxCell id="0" />
        <mxCell id="1" parent="0" />
        <mxCell id="wYbG2ShE4yD7E5KdKAoz-1" value="" style="shape=image;verticalLabelPosition=bottom;labelBackgroundColor=default;verticalAlign=top;aspect=fixed;imageAspect=0;image=data:image/png,iVBORw0KGgoAAAANSUhEUgAAAPEAAAFmCAIAAAAzvesRAAAgAElEQVR4AeydB1gU1xaAzTPJS2ISYxRifDEaY+8ICkrHAkoRQaVL70VBQFFQQMCCIggiIAiIoIhKkyJFeu+9LLB0trDAsktnnffNLrtSVkVcqvd+88nOnLnn3nvuP2fPubPOLEqbhhIUFBQcEvY2MRVsc8oCScmp5eXl0EIvi6ZjgPHx8elZ+TgCCWxzygK9A++mY7rnmk7A9Fd04QGmp375AT89p9wzrTOAacD0QnPhgGnANGB66gzMYk0QTy80cGmRxsQPwE9P/UoD8fREnubCEcA0A5kui3A2Py+prfO0qQ4zSJ3d9kZkxA3BQ+pXXj7J6sQRRnaPsu7dM2o7PiL9irwp1T6MHzJgmoFMZweYyUps4Rd0rq1GDVDnrA1Z/Vj/z9/5Fd0c47E4wsjuHg6ZU+fsb9+9f9v+9m2dw/uPiAub+vhmdFBrMX6mvx7NgOnZYZqKOAnX2Y3L89IV3r5VUF3hUfXXQ970jRQwPdtMEwZwhFo/A34BYVnBO9nTN9Nfj2bANGB6ocU5gOlZZhqDaS97qiPBfkBA5Y5jdvfX402nb6SAaQYzfXTZ/1ZzycooaiiraZE3RTlZgR0//Xf32Bxx2yYeTjElZTUtJRWtU9I6+lfcvGLKCtALzWVOH7gf0QyYZjTTv/351/7Tp+SUFRRVyZus1CnebROZ3sDJcUz+lNhhzg1L/vuP8uXnRfntAGjGWAAwzWCmJ7mWR1n3qCmIDzDcuoV5h4RlSGBJNwr8bJURFgBMzybTOEJ3IzLJQYh58z41jfvpZYyY0Y98KX8lIsD07DI9hG1HVUVdOcO9j+fUVato9FeC3bQOEzA9u0yTcN39uNbS5xanTxwSPajtG1FPasMzJqycVm7msnLA9GwzTY43kOk+dmqiXGwi8jeiohE99Z0A66lbADDNQKZLXzuZnRNX1/Qf/RsmbAMy3E6AV+Vy0OPMDhxh3C5t5tDJATcuivBw8BncSceVYGjHwYfPtgBgmoFMk9q7h9vxw+3d46ZhuB0/BItGUsBxu9ST4bpDWDztNOpxkDh+pgUA04xkei5HmV9P3wDTgOmF9oUAmAZMA6anzsAs1lw0OA0lNjY2M6egq4cEtjllgf7Br+OZNS3TUCIiIgoKCmbxSgVNf80WmC4/DZj+mqma3bFP17MQANOzO69fc+uA6a959hfm2AHTC3Nev+ZRAaa/5tlfmGMHTC/Mef2aRzX3mW4oDn90T0tLS0tXS8vOL7mmjvg1zxcY+6ctMCNMY8vy3r7yoJXnyWmV6J5P9+0dBHXXZ96/oS939IC4urqWurqNbxKiFjD9adN91WfMCNPlgW6XT27598/li7/9+c+NG4UtbwUXYz9p9neD0ECRvy73UQkVOW+GvoXkHQkawDZX1zY0tncNfrIfn3/CYFd7Y0NtdTN2ACJ9FXfuPt9E01ljRpiGoHfvqgvDrir/ysxtmZpSS5zURA8RIeRDE4Ftx+WuuuQy1AYUzQcl1Q08Q1sZqpmirDXU00Bd8qDJQyREHJoG/UDlRy0wQ0xDUHVR2FXlpcw8lmkpk4weYPI8TASElXRcg+o/OojPFY5ollTTnzam9dUkBUw8ANOfOzWMOH/2mB7AEmqi7hs7vHz80MnJVhMuOpqato+TEXAWOIAlIILvawruX/XP5u28gvKaOvr6tl5eN82cHj97FZEc7qWpr6/pFV7UVFIUHu5Erj3yz0VLhxcp7VA/iWwedFHRaPFFJ4cXKY0dqUHaR/mpmjU19TU1vcKTI149e+zm4B1TkxlgbGSm6eT1LCQ++aWD8f2oGgJ2gKyN1mdKJyGI1E9oT7nvYGk40jjcKS+nszIK2zf/s2oXj6ymirqm5idVoesQcEOOUTW5QQ7XbTVtr7skVELQEAR1Fb545nSRrJzcyaImNCNmfWHrmD2mibXYNBtR5h2iIgpS2gbyGhpqysoy3Dyn9d09k+qx/VhC9SsXjSNkpnmOyGto62jaOJqc2MElKCCvdvm6tYaetoZXWFFTbnbQMzt5DWo5c/y41HEVNcfM0u6B3p76yuAb11WO7hLWUFSFz5CSNjpn5ZbZkfJUi8I0rFlDQ09Dwyss+r6dvozA5sNyVk5W2rpnNRw9fdz93U0EmEXt0rAjXy1wn+1EmQVM3FMycNBQd1tL+pO7qoePS0kfP6OhoaGgqCa667SR8Wnh0zDTO7llNJTVNDQ+qQqRkeJuwPXLTknTWxfOGptq2Ni5JJQP9nVURD+xN9HXViIbR02G+7Tm7RfBk0qvFza0nxjd7DJtJcr85waeC1dfwCnjcA+u5Zm8yC4pBfNXGYMQNC5CGNll3cokeFw3MBuCKK6zq6sLi32fcHblP/E1EP/rT4NHyM625lBPfdGj+09apEJd/bAhGpOSUgMDs4eIA3BUMzb2aIVP3v3Lrh18juHobhwEQbiMlI8x3Y8riwzV2fP3hpMXAvKKu+AK3Z1JjueepUe63hkXe3xcFcy05r5v/1iz8eK9hOpGuKdDA/i6bCuR48o2Y4wjbqDnnICYjrz2E5zMJ/HsMm0nysxP8XnkeSRCdR7GApJqlNSNPtMwiCEtHzYxmR5+inNFhHrCbBmPj2vHaaYog5kmn1z3jkBJ7D4OIg5RFGapsnQk66V16N07CGoJIasaFU9/XBXMNPkLIRVDzTXQnS2BpquOWJO/EOgYh9Ye+DDBArPO9Mj3+Mi0jXaf48gbtztqJLjq5EgLNgEuNrjs3rx5zYY/mUWt07C1nemvzBWO/bJyzQ42FlY2fffkZLIPHP8NQFE1wvSkQUTmpD+6IMQkcCGqqbKTErxT+/S5qmhM04Kc3vr2nJun/li1ec3mzbvJ42JlYduxZuUvy7gVbT2KqA2Bv/QsMM+Z7ipMfeZkekb5uKS8heO9e25ubg4XTORFdzCL2sB8YOpz4yPu2dw2Fd35y4+bWIWEpMnp1xBxaPTFQ7HLl4NIs++Xq6IlG/ImFxzcRpeX8bmlGFpL4AMdC8xzpmv8nTRO7txySsYluYrQD8fME7/l+7GEmnCX8wbn5I/wbOfkPnTRt4FIrKEbT49dgJuoanSO2FiQ5WcmtpxdO7CmBDt2FfrLme5vxBXfU1i56+zd+ITpWEGnQ8LCOTTPmS7ysFVUOiBkF9wN9ZJv5PQ3vIm8qczBLGqbhq3FYLDt7U2d1JSqIchV5yj//lMWScSuOt/Lh0SVNJz9aQnXRBDxI9HFxaimyi4SNEQkNKalP9Ln/Z3XCA5zG8ujb579e8Ve7ZDIMhw5BR0aHupqrkHjkcFehionuXXsiwa6Kf8F8OOqJsYeEA7fFmqzfYWCnpdvZhftdwQ9GExX1/vdhYMhQ0cyz5mGQRQ6wi5q+hbqJGOFCLe0FPp9KbOoZRq2NsnF08/XhHarMNfFUu74Njhl7CcOxbuIsosLGbyXTmSadp/IinyfCJeR6q7G9s333y9iVSOnbuiiMD+5n5YvkbcMK0LAs4LuxIaZijlHpzz3uSonvU1A9CESO3IjkXrLia4qOkxD/Z0t8Sar2NcIyVmG0+6i5rq4RIa/32UoCQtH2YwwXf7c3fzU1vWrViz+7pdVmzeLWtmHFGNHf4/DK2cfWryjrrjRzREHO2sj7G/I7Vq5kY1lD5xLnVKQVDqjzD7ipxNfXdcWX7+LnGSxsW35W0DO9GpIE6afRHrXjQ6zMpXiXQlLudjYLNwDb18dtwAH9fe2ZRf46B7bzrZ3xx623SckT5518tLbP+KnoaHeztaiNw+VNh3m3rodbmMXCwfrShmf8Pya9kxfH4Mjv63ZsZuFlY1N39w9Nu8jqugxTRoe7G4qTHbW1ZHk3DIyALYtUtduhRXT3PbCwZChI5kRpjGlufEv3yc6z5JSK1A9Q/i+tvwo3/CM8jYU2cVC7wah7vKM8Jik1ApkD/SJXaoV+lEV5UnPaMpfRkTEJWWE+0blt/Xhh8g5Ik3m5jYmwXrfKy83t/jc8rzM1KSY8Izybuj9IwPgTuZG+T7yhpW8fBWeXtuW/3pUn4cHeloy/V75U9vw8nGLr65v74W66utzI6hHI+Jz6zEfUdWFaiun9Zk6MPLfHmRGasQTqh43t4jc3Hp4JRyUj1hgRpj+SPtABCzAaAsAphltUaBvti0AmJ7tGQDtM9oCgGlGWxTom20LLOqchhIdHQ2eWTPbM/v1tj9dTOfmFfQPvgPbnLLA0NifpSxU6qcr9kjPyv96nlU+X0YKnj899cs4Pj4eMD0HQQdMA6bBM9WnzsAs1gSxx0ID9yPfD8BPT/1KA7HHR8CaRRFgej4z3T2Ew6FLChpKER1Nn/nCtVlkbrqbBkzPZ6Y7u3Gl7nq8hgZmofGAaaoFANMMZLr09b1Lhic0tQJGv8d2OgNZwDSV49G+HzDNQKazA8xkJbbwCzrXVqMGRlt5uj4DpgHTU+eXXs0JOSJgejq/lOjhS9dZAD9Nj9bJHftcptEodHVZcXxyNnmrzK/GjU7sWpubygooouz4rOLkjLLc/IZqHAnbTWqqq8rPoYrg6sXZFei6DhIO+Gl6oAOmJ8cvvbM+k+nhmngPB8XN34wUwVNmofHdNMc2nB14xfQQVbhx06r/cYjwnr9bSmrsJL29I3qKhSqC/24S0PLwqwZM06w35gNgmh6tkzv2WUxXR921MDQQ1XXxT86JTc4Juq6jomYkdTOhlEDCEEgZvmf1jgrwCZncSc6JTs4JclA7zcWxi8p0YU560tu4t8k5lC3outoZ4TNHNZ7FdXa3gXWPCa4aMD05fumdNWmmB3CE8mdnNfTVbC4H1zUQSO0EUlP6g6tqqkdO2D+rH2jBlz9S45UTVNK8V1JGRhyWykrwUJluQhNa23tpsSNZKidw0NKztru5CKzljXHSOAIJME2P1skdmyzT3URc66srh4+K8cirWD9wcCJv1tqneTj3H1C1SiM2NLy6cpj/zJlbLrnU6UEEO2qp0mIPHIGELM+OfzG67hFu3vN3C7sbCwHTVKNRHTZgenL80jtrskyPZHKsm5jW/LOddTfL+01Q7tz1eHxDxj01ruNSWh5+COr00JguGWpEo0vyi5/eOa8rsn4rC+suFtbd29evZtoKRyaAaSrHtC8x4KfpoTrpY5/JtIQ8JbEbNw3tHbjXJoJsh0fSPoqUxjSZWl3ebav+J8hzNqSAQEITSLixUnAfcTTQgOlJ80vvxMky3d2Dw0XYCHKdkbW5m0H1xDSyO/G4vHtqXLuFRktp1OZ1NEaZi+2TParp+aSqo40ciwOmx0E8bhfEHvRondyxyTJNGMQRmgKNDsrwnThlFp9J8bUEUlVGQWpkfGZ3L7o1+Y4cx2FxbZXHdTjCEI6ATnLXV97PsY/3/N2CrsYUe4UDAmJqzo/KR66HwhfGeoJkKYg9aK5h1AfA9OT4pXcWXaZFVm7aKm1jbX9/JBd08rv/MD0H3ZcZ6WyvLS8loant9OAmOU00M3OwvhOYSRhCEzBJfhd1zsgePmlGruV23ei0COt+mOmi3sbaJFdtoVPHpSSMR3LE25dOiXOQpYDpUSjTvDVgmh6tkzs2genS1/cuq49KAcnpoAjPYcdAJL6WQEJmvvK1kHyfI0pf1n5cSp0JWl2O3Sxyl25cUj6tKsh/6X41qamLVB1110rrGK2iuoW1rpa1vurdxxXE5oqXdqoON+4lZtCbXaryCQHPgj4ZMD05fumdNYHpL0FneAx/yfdMpdRZjzqHEEitC5q/MaNm0EgB0/RondwxBjJdHeUQ8OKVF3V9OuOBrJyi/EHLBMoNmumY+AWsEzA9OX7pncVApsuenb+oIbZPVE1BCd6ElXW07wS8yEEvYPKmb2iAaXq0Tu4YA5lGpgd52V9QUtUc2exDn2a2Td+sL2zNXwvTg9NQYmNjM3MK8D0ksM0pC/S/f7D25JzT/DxrUcs0lIiICPC8vPnJw0Lo9aJpcNODsbGxgOmFQMf8HMN0PbMGMD0/eVgIvQZML4RZBGMYbQHA9GhrgM8LwQKA6YUwi2AMoy0AmB5tDfB5IVgAML0QZhGMYbQFZoZpTH1OXGxgWFR5dx+jlv0pLwgNS8/MqceMHtDHP/ej2spzXz/OqCEO9H78TCCdtxaYGaZzwyzJ79/2oL1/+4sNNtwLtQQ7ad918Ugu/5CywU5MAxJR2Yjph0jvyCfhSwpfeeodvReLIXR8qBY4Ps8tMG+ZnozdW0M9x79CfDLVwDnz2wKA6fk9f6D3Ey0wJ5hGF4WFOaqPFAvfpym1o98TP1ZqYWp6/cHtoGR0fz86Oej285dhRfXdTZ2ZnsbndEc0nL1q5Py2hlAYfVNTftumf1bt5JZWV1JVV1d39HwaHJf0+q7xi5zO3m4IItamJPlaUBtWV7/m6fy2HhrshSpeONtdGDmupa9uE5aEwBInGg8cmZMWmH2mMSVRT29pa8gKyWppaGjJCgmePmPx8FnJSOIHS68qqRzlEtXSUtfSUlAU5N65/6CAiQeCSER4mAgYXbjo+TrT31ebn11U9ZSilpaWlqKigdSZ6wm4nBB7rTPbt6z73y5eWS1VDS0trXuPfD383a8dWWUa2NKJRGa8cTbWOy1IlUoKnbmofi0c05QcYSZy4qSckAysTV1dR1TM3D+rsmVOzh/o1EQLzC7TJAjCJ9oKKUhISl5PaoGGh6GWpOuSkhIKQraJeIhEokg5Dx7TfJ4DQQMQhI2zunBcgHU00/qXHN21eJav137eWoKFB9hRXZ12714agdAxMZ7GZaTATBsHtjQmeGppCh46IHM7uAXqHYYgqDw5JNLXzrsozfoY859nbCOj6mBtAwRCzr17adXVjRONB47MSQvMLtP9EBTvIsquIWfpkks1T66LpZwGu6hLPNTfP1FKw5Tmpw0uO7qbCDCL2Kaga7pJpHfvKCscsDrayUiIOETWP8K0QWDLqyui7OJCBiahrdSGyX+Jtdg0O1FmfmO35DQsaay6MSeCnTlrgVllepgItfhePiSqpvMgqIFqooagBzpqoocu+zYSiY0TpDRMaUyb33r40kLq26XrNu7YuotF9pLbM9raHu3kcUz/oRuY46R+SFRJw9m/ZpDaMPkvqa0T+cjgz792rd6wcQfLMYWzjtlQ98CYU8DOHLfArDI9RISQHiYCkmr6nu/dJQ3EKjwxw0aeU1iSrpTGtOWTmIa8BHcX7xtnBDev2rB+zwFx07PngzI6e7ppqsYxzawTmGavOK7dkYnqHehBZPk/fnpbT/Hg9vVMf+88pnNG+WFoYRN6js8k6B7VArPKNKkHag+0OiKoruHoj6D2COHvqCEvIGDiATNtq8DJKTxaSsP0PdNhcNhC6ofaU1/etTZTlhDn5Vz/h/iNbCyydsL6NCX2WKkXWOyue0RQ/sxNt8IeasNj/3YVpQU6W6rJKZ3gXPsj11mv1OzRazFjzwV7c8oCs8o0nPXleMtxqskYX4vp7IfevYP6O2OuGctI7JG8HtzY09v4zEpkt5jMRdtEIgS9g6D+znyPWwqnhEfniBf9EnFt1Zj+IcqtQnRKoosK2/L1Ws9bSyoifQ1VTnLr3Crs76bckx+Jp88FtsTekuOUOKis5VmGhyASPCfETkx7W10LsbOxCt1D6Ccf60Zg3l4SYFopR00Z59Tkgc7QtcBMMs0v4l6L7h4gvS9wPpd7X0xeXEjAOLiWNDBAqg02FhASlxe7nwtBQxCEDDU9KCQuJ+qcTSINkEi1ISYCQqtXbxvNtJyG4/ObojTNVaGhV6WXrhSzSsPWEXPDLeVltgtQ2333rj2dvO4Br+VF3heTZ2NjF3WOI5F64S5lhz58fFPxWk6Y0bF7+clwvkkitRU0PVZetYJX3SM1A0fXgODgnLPAzDEt/MMvS//etmPXbpaRcozviGMEprsJkxl2R0OBfd02lt27WbatY1fQuBOWiekhO+aBrubQR6ZyQn9tYmHZy8Jy8ryFruLx02P9tN3DUCuZv7ftpWjeuo7z8HEVr9rqjqEBUk9X1mPfs0eo7epcsrvpQVufxtQmexgaCv21noVlF9ylTesEtaVvvUAhPPRZ2Hm2ko/t2My2c/PxG2lx1UQivN4HyjywwMwwjW3IS4h6OK48feyfhegZ6IV60JXpyUFUaVByeiV6VJBLq/vo4cPg5Fc3TOTUBYRuhOCHevGVWRGZ2XklVQ15CQ8felMVPA19k9UCDVAQxDc05NFajkpIzymtyI/yz6qD24XwDXnvhQ8fPgxOeFPWOJIjUrV5P/ZPQPTgwK/45gHMI12cGaanbo8eZHplVTn1riKEibhwTkmZTyeokhyaTF0vqLlwLTDXmW4NNXG9a2Xim0UpvjZSqqamRkEVC3dGwMi+1AJznukw07PH1iymlaNWVuG0Zb8vHTyovyAtMNeZHuxqbqopzaeVmtbWrv4FORNgUIyywKLOaSjR0dHgmTWMmiGg53MtsKhrGkp0dHRuXkH/4DuwzSkLDJHvI30uIvPu/OmKPdKz8hf2c2/n4+i+lmf1TsdVyMDnT89HdOZsnwHTU6cdMD03sQZMA6a/5NVKc7EuYBowPRe5/JJvAMD0QmW6H9OBKU7LSUrMjE3MS8mrr2onYbsXGr500QdMM5Dp4fbuIWzXIKZrENtNah/7tr92PFmEH5ohsLpbayt99P5c8fd/Fi9evGYrv4ljKamxczaY7h7Gdg21d499AeRY49BFc8oHAdMMZLok3NFMZecuNq5DRi9Q2Y00gOD3jYdeV1M5uGv/cTUN/6Y6zOCUJ2xyFTtKUp/ekt6xRvz67cdxiWklmUVNCNxs+GlMY12atwavrXt0ZdF0cjzaLIBpBjKdHWAmK7Bo0bc/Lf9HJuBxJqqRMov4Hlx9uNUJ1i0/LfptC7+gc201amD0HDD+M6o0wfei+D9/cF/LjiojTl1/c97rR963bJ6F15Na8bRL9HM+dHa11ha+9EpNq8DWA6anzhqdmjNzzwVm+uiy3//Yx7dxnYZtYFFeOzz9GGx76XM1VWmBnX+t3jYzTDekRTjpHFi+S+tZa8b7r4vPYZHCHyLYUUtVhPf83dmKW6Z0GQA/TecKmOShCevTMNMSW3YdML+nvZZD53r48/IeHL63CVHoobBV2e7s6ePCEqOYbm1qLM3PjIVzOMo2KpPrwFWV1+ZklpdWId6mZJNPmCAdnfZ14hvq6jNTK8vaBlrbcVWZQQ/Oy+9axqXiHP04KjMxH5lXjUIUZyYk09rKeZtaWdo2QPO+7fiBVmRlZmbOSGeSs2OLEVnhTuYSYlwscoZPM8PjM2MTy/PKGypoDVE8N74X3dacnVpWXNfV2E7pRnlZG7YoryQtsTg9D1nT1pKZWldR11T8kRGR2UVjcO87mZb3NqNkZESf+RUBmJ4kwHRO+wDT/Hw2KY80VrIqW5gGVrajEFUxNwSZdeyee9nAxL+PPXKCLC8cof26dPHi/6zewnv+TtFQQycJR3GQWw6bXJJb+tsv8EkTpaPdJ+yYjbmYRMxj0XmFIfe0hTb+55tvFn3zzX8W/2fx4r+OGMhccXeTWbyCrImsbflSZhGTN225KErqNoxua8t1EuHeuhxOKRcvXvzzz99IyR1as3b3N3D5z8jRo6e1L9nRGkKRHT+qpjrWVpCJX88pObqQ0o1Dl94E6PBxsCzeu5fv/KPYW3xM2nZO1gZaqiIfGhGBhOserkgLdj39zfKfyR34a/WyjRwjI6I0NGmfDZimA+skD32I6cN3CgoirygfllU2DvB98+aZyXb+s2Evct74jGW6qqIi5e2bxLQ8yhbuce2yjNgWLoeAuq4amGmR7Uy7N0nceRCdHp2WN0E6NiQYzXRzR03OKw/TMyzLeNTd4p/G56UVN2aVNqTGhSel5lDaig7yeaDJu2nnJbtIOHVrqcpLvCvDvonr9BUf16i8xLS4iGgnGeHrD26anTspzsN6xvhFXnRyXmIaojAn6sUnmNZg+Zbpr3+1jV3DX6VVZGdlFsTeOjzC9IdHRCAVRbvelD+wdb3i1fCkkLS8cO9rpic5mJlELsai8wDT9IicuXga9sROldU1JY/OikmpyR3Vv2TGxq4ZUJ1an06OTN776db23mY0gZbAtZZGBFxR2cYsfz0DW1wa7Kglzb1DSvFReRF6AE0gTZB+mGkUCTcacTIQ6M6BhrYu2oIaur4497E26++i5x5mJKLaCmLcrnD8u038jnMMsgrOAYhtWGRcaGlJ6uNb4+LpCZpx4/20AfsvrGLnw14UkpNCWHpLcITpD4+ove71bS2tAweOXcxMaelrGRmvwlYmkUuAaXpAQxA0s0yTVzaKXproq3GuZTt2iPOSX25HNY4Sbb9nGkcgNTfUZoe53LvnYu/gYm9jrHNKeAtlFgsnJGejYfq4lB7TcKqK6y6N9/bxILd1w8pSX3zLz5zqTsnR1UXxPpfElm0/eb8koaaPdo3BHybmiKO78cHYgxwCvZfSmP7wdViX4GV0RopD/nISqR5HDmkmNgRij7FwzwLTuPpEL1MZHtaDe2yzKlv7cISxTHe0V5WVh/m4mJ/8Zy8HGwvbPtbdWzet2fgH5dv249R+XDqRaTiDrEl4HWmvsvsI765dbPtY9+zatfmfpd/tVXofBI8CkUbPjDGdE2ivpnjoQxkCiD3G0kzZmw2mCaScIE9vG9oNvLFMVwc7agluWLb9D+GHUfXdTYSxAcPHqf24dCLTsM9T3fn9bz/ssbobW1NDII0NGNIj7xlzMwlfjkGNj1xnjOlo5wtSYpt5zjuUUG92Aj9Nj+PRx2aH6bYWTF0d7QbeWKYz3C7LKu7muepcgqntHMJOK9MlEYFX1P9gUjaPqcpG9WHGMV1Xluhvfmrp2sN22TEVY2/QzBjTOc9vqwtx7ZM0jiEhyYv6E1OCMUER7ZuE3gew7jEa/c/7/KF1jw/cKRzLdNETO2VJTi7N67kkePGOQKpM8Lirwr6GSUpdq34AACAASURBVMQMXo/7aDyNTHx0XkGc5ZTqC3QtdgjXnPf6wUV5DmrdiX4a8Tb4htqWFdxGr9tyWuG26kuTQq+wb/yVQ8UpObqhszDOy5Jz6dq91+7G1FbClHQ2t+V734pNTQ9yHt0QgYRrh4Pv48u2STgXJyB6cShETvg9QyH2NT+QVY2s5Y0KY8bkiB+Op5EFgdfOSHDz7r9VVtXWjyPg8sLuXj0+akT02P0Q5YDpz+N49NlfxHRLQYi9jvIRbj4dF+tb5LzNUlPz+IF/JsM0CpnyxO7yyePcp62sb9yzt7S5qCUvykWtO5FpdE3mi1v63Ot5lK8bWZPbsjW7onHgnyUcqjDTpIaqwmgnNUk2PtlzZhccXOwdrltfP8sn5vYsIfmN1xWTYwe3nLayvHHP3iH0VVJmYqr/3VMCPOIXDc0d7G1uXj2rLS964O8fyaqmzDSqIz/W3U7/JAu/gZWdo72D6/XL2qpCo0YEmB5NHvnzzMQeZREuFudP6ug8pfsrpfHS+qyQx1dPsbLto2zSOgbnrzqpHDZyycCVViQ+sbM5q+7kV01q6SKvA7QUJQVQpVgSDt61kWbbxw5XNzCxc/UcLx11MoHUUp2f7HLmIC8npa2jJ6UvuXgr8mrfCMhPbYH1t7Wh428LywmPdIaV6zCrWUREYTuuIinC2YDaSQMTl6RMbFNdxkOdwwK8cNNn5NTvvsrwVj9MVlUxtpMEEg4++bHO4ZueAZ63Pj4iQn1OjLsp274DsNpTmobGF80MWZlPWSdjCrFkC0waa+CnJ/A/6QMT/PTnmf5DX51f6fHuIfjnuNRfeLcXhPibqS1bZepe3VE1aZoppgNMTxrhCScCphl4+SEzXkb537ZNJDWQ16eLQm9cVef9Q+lVdiMRDZiewN6M3XMBfnrqFqiJ93A/f2jrYeVTsspyCspiiloy5k4Pk5qbcZ/9W3Pgp+ldApM7Bvw0A/10U2lKhKelirr2yGbldTsKOTX9XwvTA9NQYmNjM3MK8L0ksM0pC/RTXgAyOcc0f89a1DINJSIiAjwvb/4yMd97vmhwGkpsbCxger6TMX/7P13r04Dp+cvEfO85YHq+zyDo/3gLAKbHWwTsz3cLAKbn+wyC/o+3AGB6vEXA/ny3wPxnmlhTnfj81lmn1wgCBrzpZb7zyIj+zwzTGGR2TJiLi7und2wVsf39+zNJEISvSwsJ83HxDAiJKMP3DX7+2xngV4ibCDCL2qVha4lfZpI+VGtpTqh3GoLY/76PX6YS1J55C8wM07lhlnKCixb98NsfQvYFaQ39Q5SBvhuE+gv9tLl5mBct2yYg6oHEEkckn2GIKTM90IFG1laVN6D7IdI7coP4ksLgRwYiLnFYQsdn9ACcOrcsMHNMC33zzTc/LPvPnqvuKbXtFCMMEd7Vuhkf3L76m2+WzzzTraGe+mqSAiYeSGgKl9LcmkbQm1EWmDmmT/377x6dc+JMotd9M/O74C4MdKOybrKoXpA9cuCAMGB61KyAj19igZljWnrb/oPXXzoIbjp5yf1hFgrqx3SVvbzIKWzhc8NUR1J6FNOowpAQB5VR5bz5rcAkLNRPgqDOgmR/7/u3PKMQ6X5n9U1UHDweuT0ZE0+jGgtDPFS0tFQ8QgobURDUj6lGhFqd1VUnK7S65hRfDg0OQuXx19Xltm5c++cOzlMqCkoqKioOHv4vYxPD7pz1y0ZEed667+3g7O1N68clB//kgs73ph7TyUuXzp+3vU/r5PuzwKdZsMBMMi1w1DEnzVXkhJS+sWtiGSKnwFv2mKBjQOpLL0u50Uw35rx8flNJl1pUJSVkxJVVbqcVd/f3wgGDNP/GQzIWjtb6Z8/runj7eQS8ZxqDzPZ/YKLMx3JKQ80rori5EVWeH+ZirntGUVdbQ1dXVVJR6YzZxYiixr7SuDs6iju3/vsXC5+Croa2ru6IqmtHmHUC0+wVBQSO7BM5rXteQVdXW1dX6ZiQ1BnzKwHFTRA0DEGY4tf+FkrKx3iO6+pq6uoqKQvx7NwvAMKYWQCYTpMzyrTog3Js9csbJ0+o6Nlaens/lF536kFeVmNK2Fim8Xg8FouldRZf4P/43InVf+p71XW0NoV66oux/Mqy+7BLBIacyY3kiMJ2abXpeUEPzsoJcUiJuORiCQMQRKyPcnHSkWXVDyno6O2DIFiVhexa/ptRjd2dsKqx8TSsisY02/adsrJ3klvJEGPjrC+Kn+Q+dieyn9T3Dp9oI6TAdUhYOygXggYgiCwVYANM0+ZsVj/MLNPklY081+PyGqxrjkhrrzx+Jw1bR4RXRUb7adgg70ikYeovBlEpia7n+SmrdQi6IJrwMx+ySQo4x8/OxqZw3DWPatKcsKsXDPmNHlQPdvaStY2oErFNxdbSV0VjWlJN3zO0larpfULZRxyKdxZh15CzvJ87UQrSTapNZu/vLDDdW+HtqHdo40buzWqBZaieARIdpnFVia/NdnLv2wmXbev//evflcyiVmkfAlFz37e/rP73b6afD5008ougLYBjIn0Mxff+zPTX5p3bd9BUMa1Y/q9qYGtJMd3L41NM1xCJDb6XDomp6TwIaqDO23viAdNUm8ze31lgGuppSHEzN1NW0Ilq7egbhqCxTHfmJ/nfMZQ9IyKpZOX6wO3Ro0fO5maKx3cyi9p8kGm1A0uW8Gpo8K7jFhA4ZxqYj4Ug+OYNjJrMwS1CSrcePfB8RCuP/Z8l1fTg6qbEdBWemH5NnlNYgr4XB0zPHsvUlmeDaTjHSsuPeZXaTl7KGMc0wt9R4+TOrVLyD1KrCf0DEASNvqtCP2DQ5V2xzTA0ye2yjiKPIPuJK7fTmrr7h6GuOH8TJTluNfsiqHuQOmLa34nOdUw8/YHYowpPzLRV4OQU1nD0R1B1TVRFlYC/M2+B2WF67DjH+uliDztFxQNCNq/wUC/5TnlffdTr64rszKK2H/TT1Hvj9clhtopH2A4wK3lkIAk9gxWx9qp6Bw4qeTQgCcMUqgd7ejobGjqHhwexUb6GKie5tW8W9ndT/qPeZJiu6SE2BlqL7haTvmCTSISgdxDU35HndlP+5DGQI46d19nam3tMt4Y9OntUiEPkfMwglgAndhUhV64ILf+NWdTyk0wTIQjx+rXVsV+ZVsn6NOS3kqrCra2OrWP+y9i3AdtMzhKb8/LDTS9EdXahobzXVgqyOwREHlS3wink0DAmLfn9uscH/DRyiDiEDLtw+Ji4nKhT5uBg3+AgItjkoNDff28HTM8WxWPbnXtMD+Lrou7ckt/JtG7ntu1wYndCTkJRUXX/ZPw0EYL68ajcl376u/7dsvOIedDTlCpkcoC/Ae/uvbu3krPErbwS+0xDajt7h6BefLbf43NHfv1r81Y4hdS6aHPD49NMvyMODeBbw70vyAn9b8POnXt27pQwstBTFJcSAUyPZWu29maG6fbGgqTE4Ki4KkLfEOXnQqPHO17aj6mqTH1JS+nC3rxJTM2JehpXhO7rxjdUZaa+jcquIkAjmvoxqEqqlPwLqKFuFLog7OkTn5eplVWYftruiMLn4c9yWnsGhuEe4BsbC95QG3qTlJlXVln45mkGEl2SHPU2NbOqoYfaz55x7cJ9Jtf0efQoLDX4homcOv/RGyEEqHfi+Kg6wN+ZscDMMD0zY5m5Voh1qRWVZcXokRbRr03PKSnz6b6ogqDP/2HhzHX7K2kJMD2ViW4NNbnvYHneO51SvK9Jq164YPyiYiq6QB1GWwAwPRWLtoZdOCf8z3e0Imxt/Zq2sDcVhaAOAy0AmJ6KMQfxrS115UW0UodC4cH/G5uKJaejzqLOaSjR0dHgmTXTMVtA52QssKhrGkp0dHRuXkHf4DuwzSkLDJEXeyaDxbw+Z7pij/Ss/Kk9TxbUmj4LfC3P6p2OKxI8f3r6uPwSzYDpqdMOmP4S8qavLmAaMD31F1ZMH5dfohkwDZgGTE+dgVmsOf9zxE58fS0yPam8tHWgFb/QKPwSrzyxLvDTU7/SJsTTw9iuATSuD9XRj8YPt1Nf9Uc2OlnU0YfqGIBFn/lyNFjDmHfKD2G7BtGdg/BbysE2wQKAaQYyXRJ294LStu179gucC0JlN9KAG8QRGkNsVZT4trOLqKg9aazDfPb70cYwXRrva+lkqOkfSyC1TZhRQDlgmoFMZweYyQosWvTtT8vXSvv7ZqAaKcDhe3DIMCtx1i0/LfptC7+gc201auCzyRvtp5H12Qm5EeFl5QQSBjA9wQKAaQYzfXTZ7yvZ+Tb+o24bWJTXDrtqDLa9JFBVVebgztV/b2cI0yjaNwD4QMcCgGkGMy2xZfcBc2ftf9i1r4c/L+vB4XubEAVu8ttU7M6dFheWGMs0tr2robIwPjE9Oj4tOr4wJa8FSSDRomQUur26MC0uIQ2WRvg4mmlyMYmYx6LzmtorS+tz81rquvrqyrNTUsgnwBrSo+ML82q7GjrpzPRnfzNM8H/zRQNgmuFM8/PZpHhr/smmZGH6rALbhqh6c11wpe71IC9bM9kxTHcPNRQmhJvtXbl8yXfff//dt3v3HnN60TnUQk4u2/GD5akv759evGLp9999//33a9Ys37Sfk8J0YbCjlpnUUefA5ubnRn+zr/ueUr77bsl3i1nl7yZEIoemkobOW4jHXWyAacYzfeROQUHUVZXDssrG/j5vop8Zb+U/F/4y943PWKaRGS+8LNVZTlz3iM2MzSyM8LxxRUtht0ZQQhOxmUAqirp/XY5jy3oly8jUsMzClJAH9joSzEwiF2LReVSmX+B6kpNjUtMyUzILUzILExOSnpsJCnDqaNx+m75QAB3H62R2AdOMZ1rQqbK6ptT7nJiUmoygnpkZK4dWACK1Pj1gDNO1Mc42F09oKntXFqMH0ARSW2lEgI3mjs3a97Lay9prX9/W0jrAKXwpO7Wlr4VAwiHeBt/Q3sYkcmkU08Hdw4g2PLpzJONsx3U0xJrL7jspc9bvZfPXG34ApqeBafLKRvErUwM1zrWsRw9yXX6S24HAwasi72MPVIKXkYrIegEJMyfrm0437J1uWBlqSR7ctIJd92VrVnWCl9EZKQ4F8yRSPY5M5+h1D6qfDiGQWgmkqoywFz5kDTftb5hJ86znO6Hl4YcATE99ZudFzZm5jziW2vqkRxdk+dgOsdplV7b14QhjpYhgRy3RHb+uWrt7P+u+/fvYRzbuw6IXg9G5aYH2amcO8Z6/W0pqpCR8E5kWtH/RWp+YlOFqckJacMdu9v379rHv2/3vyl9ZhADT84LKL+vkbDBNIOW+8PKxNXUa4XIc0yFOWqoiPEYOJVRqR0fAKc4XpMQ2j5ZOZJrH0CvmKi/Tb79v1tByzSgnkHCd3bhSdz1eCXnA9JfhMi9qzw7Tba3tSGRLDY6EhZcyxjLdmfbYVF5+n+T5GBKSvIw9Jvspf35bXYhrtHQi0/s03X11/vz9tJpz3JtGAhowTXUKIJ6e+jU54fceY6mlmpgK6zgpJt7NUJ9nN5vks7AGQj355PrK+mTfZ8kYQj2mMPDaGYm97PsME9Kae9sIpMoEdwflfWuYRMxoOSKn/sNg050rdinZx72uhaNnNAqdcf+Y0FZ2EeCnpz6r86bm7PhpKs2UdG0c06SqrNdPrNSkBKSVrtmb28NJnvlVB91zznHN+AZCR0Gcxw1Nsd1bpPUt7a3tnW5e1dQ8zvnPaKYPWj7Jf3FJeMtRKX3FC5Qc8eZN48P71+0XBUzPGzKn3tGZYbos8v5VEyk9vcDmOuzEXynRkbZUF6S4Kh0R4BnJEcVUhe5kV8MJJQlHaMiNeXiRfT83OX2U1TtnYumsJmh8PwNXVpnkf/2B2bmgWCyuMNBYXeoIpTq3wKGLrp5aUmYW10Nf14N1j6njMi9qzgzTXy9GY7+RZtkOIJ6e+jU5IZ6e5bmcU2DNYmcA04DphXYpAqYB04DpqTMwizUXDUxDiY2NzcwpwPeSwDanLNBPecXHLOI2I00vap2GEhERAZ6XNyPTBxqhY4FFQ9NQYmNjAdN0jA0OzYgFpmstDzA9I9MHGqFjAcA0HaOAQ/PaAoDpeT19oPN0LACYpmMUcGheWwAwPa+nD3SejgXmPNOd+Ul+j5xvPEvEUl5OTmcM4BCwwGgLzCjTw/3EplSvQG+nkeLi5vQ0q6Slq290j8Z9Bq+nH2cQsPspC8wY031EXENpzGsXjT2ih1nZOeGyn4tvu4C2tVd4Ri0KNwBB74ahfhSypAJB2aV0HTD9qSkE8nEWmCGm35EqC4ItZL9ftpTj2sO0Ohy5F/1drQlmaznXbRHS93jVRHo3RISQHiYCH3p5PUQE74gdN3tgl54FZojphsS7d2R3rWFWu5legxh52Tf0bniI2FYZZnlE+tTpUzfeNg8RhwHT9CYJHPssC8wM08ike9qa+/ay60YXdvSNi57boy4ZSYmynrJ4XpXko3yYd+WaDVsOCJxSVFRUV1R0C450sdVXk2SVvuXnpqqhrgiXc5fGpoz9mOrq4Kv6Wipk6VWru3HlEDQIQdBIfukRWZ3mq69jpGjvFlyA/CzzgJPnoQVmhGliYuBFyRO7j5wJbMf1kMZbqcLntqoIO7eUdWK6n7boob/Wb9t1UETVwMDgvIHB48gY1+v60nxrOSV1Lijon9U2MNA4JSkrrqx0K7Wou78XgvraSvNCnC/pKCnr65GlSspnLpqGlzb2Dg7Csbg038aDUpcdr501NDVw9Y0saRzfPNhfaBaYEaZhtgSPsIuaxkOdE19h3B7layQizHZML6y9o5xuPC225y+uvWfDCjp7+yAIXxjgd+7E6j/1vOo6WocJyEgXR225MVILubV8NyIbuzubQj31xfYs3bNH8H4khtCx0OYOjIe+BeYA0+9ywq7KSm8TEHMrxZY8+HSOiMtIcTcRYBa1S8PWEnLCrpqe4zN0rexrJ/TBpSUp3sWQj1nYNhVbiwj11FeTFDDxQIL8kv70L8ijc4BpTITPOeFje4XPvu7orKDrp8dyOZppZITPOXG2JStWbdi2Zes2uGz+559VK1YsX6ca2FpSDJhekNB+YlAzwnRv8nOzkxK7jsg/xdKJp8u9b6mI7uXRuFNA7K7+TKZhTyxzcMtR5ds+7o98aOXJ0+fJtT0ddYDpT0z/ghTPCNNQY+p9XW12VjbV0Fxcb+9YQ6Jfm5w7LbJX2iEaTeyr/UymW+MCTJTkuFVvFULd8ErH2ALu14y1x1eyNzNMQ02pLveU9v7LdMYyrrwC30e5eUIaGuhCZgeaHTp9Wk7ubkrrMHG49bH5IRFFdSe/6oGRCZjI5ejYg1gZZ6+qxymg6IasIwxRqB4kEjuQyI6hIfK6x9i45SuZ1a97mDPENATVFEdcU/qF6be9Fq5vy1vI6VwXqi7q/OoD63eKGnmHt0EQ1A9BCQ9OHDghpGcYhCSfMjjUFPxwXJ43hmmoJuLaNZH1K1ef965DNZLrNObkhppejOrswky8Hr7uyf5KRj9jTA/0daNrM5O8dbYJHtiwmZzObd3Bupbn7M1nCUWtHd2w634HQURclM0Fae4Vf2/ato1127YL9wNuXfko0wPdmPrUZ0/P8uxk3bGJrHYT9wk209Dazt4hwPRXQvHYYc4Y03CzwwM9bblBES99R4rfU9/XhdVowpg16/bKwpTX5BP8fX1TCquL8rLSE2NyqwnQ0Dty3/sx6OrcN4FvSzD9BHIQM0RAYwpfBz71G1H7MiIotw2+Ad/biBhXd+zgwd6CtMCMMr0gLQgGNdcsAJieazMC+vOlFgBMf6kFQf25ZgHA9FybEdCfL7XAoo5pKNHR0eCZNV86M6D+VC2wqGsaSnR0dG5eQd/gO7DNKQsMDU8Vk3lVb7pij/Ss/Fl8eDhomq4FwPOnp35tgvcE0EVq1g8CpgHT4JnqU2dgFmuC2GOhgfuRbwPgp6d+pYHY4yNgzaIIMD1/mO7qQbc2pCcUFdR0NnR+RX73cy8PwDQDmR7CdPa1YYgt77eeVlw/Bn7ZOCM2VE11rK0gE7+eU3J0AyMUMqRXc08JYJqBTBeH3TE5s3nLpvcbv5D8rUdVpOYuRiAImJ7c9QOYZiDT8BvFRVZt2aFw+5bzI1cPH/uLelqSBw/I6N+MwRW3fjHWDGG6KTfsoed1q4BQJKkV/8VdmhxkjPmamnRbgGkGMy2xhV/QubYaNYAjkJrK4gPtpPf/y7zPMiOylPClU8sQphHBjlqqIrzn75aSGhdoUA6YnkamcYTOwvhHVwSW/XrSw+dtcUlxVUZWZUkrKi8hPS6mOKsc20ggYTv7kKWZSUnJETHJEW9zY3Ja6zsGsVSfNEYa+eKZx3n+ZbxwPF3bVV9Tm5JQUtza30IJbCZkkO1d/a01Jamp6bDmmOSIuNSI/Iq0V3cuiYsc2C2t/zj5ZVRyBLUbX3q9UTs8F/QApqeV6eHKjJAHckuXcVrdfexgqaUizCVnHuGj/teqf38Ulb3y+i1+sAlZ89xg9b5/f/jhxx/+y7xrpZBLCKKzAT+MI5DaKVK9v/au++9/f/zxhz9W/sK6f+f3HLpOydGFaRFOxlxMIuax6DwUOYQY58W7h1DNTZkOwjw7/vj+hx9/+PGHH5b99q2UwpF16/Z8u3jxf7797r8/wk2Su5Ewl4j88qsCMD2tTHcUxHma8/7+q5Tn4xduDloi237a8i+r+d2Y7JgcZCmyqzQ/3v88yzaBs1d9oqNzUl88stPg2rzFKDgkH4sjkGry4/0Ndm77n7iu88vnOSXpcSHht2T/+o1LcRJMN1fmJNw+xbqeU8rS3yOuJD0nKSb+vpzwTffb5kZSknxsShdCS+IzS9LJ3WgBTE+dglmrOTP3EeEccXQ83VgU7W8px7aOXdy9ICH1qaOWDM/mk8qOORmoPjJGrdmvHY13MB+8mBBchG8j9DYUxYZfFFyx4/L115UVBLJ024qDmmFPc9obCCRcS0Vl8MV9K3g1Ps10a/4bV/O967ZJOt6Pra/GkXCEHlR7Q0JEeVm63y0QT88ah4xseOaYFv5jw2ZJ88vWt21vOpjr6mucUjpp6v60pBtRNiE5wxbGe18SX75bL7A1o5EcPzSWVQSe3778lJF3VkrzBOno6OLjsUc1XFd02c7TrqWJNX1jvs1BjshIrmZT18wxfeSnpcvWsbHuO8Cxn5Njv8oZwxdvCSQUgYSbCFPDR2Pi3KSw2/osTCKX6UbMH2d6opQWXUzsBk20UD6AeHrql9qE33uMjz0+4SAb0yPvGXMzHbscQ8vzENUxNoeZ+OEsMCEs4JL0UqZjpu+lo+4jTqR2tBcvGtFs9gaVS8kgabwCpqc+4XOr5sz56dHx9CeY7ipLDDCX+X2dmk9zaj059qgvKvfRWPs7N5wF5iWH31Fm+X2dIk06mtqPM42ENZ9euuagbdabcuInukHDfaF8AH566hffl/ppQldh3KNr/Mt3KDzxzUA1EvBVGS/cFXYt47ewf11V3VqbFmSrtHn5FlmKlFRfkhhymW3DrxwqTsnRiOK3vpfEf9t64l7RW0QvDlWdFXpX/xDb6h/I0gZYsxXX0jWslnfe1FTAsHY2t+V62r1JSQ9yPq8gziKp/BxVix0agztgeuoszELNOemnCaSG6rxoVwUhvhPK58zNb9oYn9MS4ROVck1LrMbjCAREScwTi+PsW8Tltc3NbzrYWZtaaHCv+3m/KvwbJlRZ2tN7sod4xYz1L9ywvWprrq+tKMG95keKlNRQXRxzX1tqH4+MnonRTQfbm9YW1ro8x92fJabGelteEDlETWRfPn9bU7lQaKZcosBPT/0Km+Cny6NcrS7IGBg8b0ZiB8e7wPrkgJs3jHRc/BGkkTt/MEk9Lc1F/oaiUke4OA5wcRxREDIMTWkmUheM2xvro26LHhM7AEvFZBSuPHisesjAPrAwrZWEwzYhM70MjgkegqWqijrOIZmPtY9RpQQSCoV+e1dcUZys+QAXB/8xDvOoqKJ2XGVKlKsR3By8GZm5pmQBpqdOwazVnBk/vTB/EjT+4pzzFwDw01O/zib4acD0nLAAYBowPSdAZOC3AWAaMA2YnjoDs1hz0cA0lNjY2KycAnwvCWxzygL9g5QneM8ibzPR9KLWaSgRERHgeXkzMXugDXoWWDQ0DSU2NhYwTc/a4NhMWGC61vIA0zMxe6ANehYATNOzCjg2ny0AmJ7Pswf6Ts8CgGl6VgHH5rMFANPzefZA3+lZYP4zTUBUvQ2+ofc0s6MHT2+E4NjXZoGZYRpVmxH1ymFMcfUNCinB9w6SvtTi8Kuarx1ZZRrY0oker4tOuw4ODk733fwzWlq6KK8nH18H7M93C8wM07lhlnLCP/32+4a9HAe4uLm5udm2cfAe5DILTqjswPd92VtGPsb0hHbhtrn5hcTUvEuKW/roT967Yaivra64vLqmrX2A/injjw60t9VUlxfXtfVBw1/FrbrxBphT+zPHtPQ2AVEPJJZIfp1yTcRr62NLfmPeczUlpZb4RRb5FNNj2p1MS0NECOlhIiCppu8Z2jqZChAEXmw+OTvNzFmzxPRAc3n0bf19y1doBEaUYL9oqIDpLzLfAqw8S0xDuNoUd0ue35cq+4UVjYTBpP5uTMIduwua8nA5q6n3NJWa9uEb8lNd5TVVyBL4H011nTuvqrvR/RD0JUyj8vNf3qQplTe4aReQUI9LfKJ8kGfl3+s3cfBKysvLq8jLu77MbyjMfzn6XHl5gwt2AQmYwX5SWYyNqsym9X+v3MouLi8tKy8vf9P1ZX4dBH1kRAsQpTkzpNlhuq81K8H9rNj27fx3UtLqCRAEDXa1NKX42J3X0DLQ1TY01FPRVD6mqO6VlN7S1QdBHfUFb++rmJmcNSQXPRUlxcNHJIxfva7Adn6K6RMrN2w7bX7txm1qiup63y0ko6W3q7Om5Pm1a4rH2E4a6ujDepUUL5hY2v0yEAAAGpVJREFUu2V0Zrw0FDu8esP23YfF1A0NDU0NDZ9El7bk54a8uAPvU4q29Cn5E0pnbrwtxJfEOOor796+YTXrIRVDPbiPbn7RpXUfHdGcAWABdmTmmD75z54DJoFhb94mJSW9fnTdRus0//GLj0q6yKlab3tJVLDuoT3K3s8LWvAQ1NeUnX9fYj27qeObiuYhqK+vr7W1dXh4JJuEpU7H1/8ma/Eivxz9kXWPkRxx+YZ9+zm5eUaK8NHjF71LulrqQj31xY7uP30lDerqh6e2KS0t89WrvCHiAL14Go/Ht7e30xDAFwb4GUr8/aeeZ21Ha1Oop76apICJBxKi5AsQ9IkR0fSADwy3wMwxLfSfxYu///HHn3764fvF364+wn/+Vc07iJwwQtC76sLQu1pMx+ziG8uwPXDBljXGWx1j4j3vlpJOAendu+HB3r7e0VJ+Y/eUDMQnmP5gjtgW5mWgJsF7zqW8B4Pv6R8cHlmy+HCO+I40PDTQQ+lCT3NCnLMhH7OoXRq2FjGB6cmMiOGTCRSSLTBzTJ9ez85vHZuWVxJkziey699dx674N0M9FM/blZ3upcv17c//W7vx301b4LLp341rmX7+dsnxaxGRtXBPB7rRmfa8Ugdp0lU/f7tP80uYHsoItpA/umT5n+vhl3KouyQk1JNN8mGm2ysTwky3cOwh92Hj2jV//vMHs6gVXaYnMSJA4DRZYOaYpvlLXFWwj6m4ONfhI1YJ5fh++GsfjonPcv/KIn3F1cHTb3SJL2pqakVUvfW8JCsvJCxvesPBzc/Pz9PB9Yo0y6/cZ7+EaQjXVJQaD6uSYPn1xw07+fiOm1+9E1M2RBycGHt05iU8vql/Wv6ohKqthyfcR7erFiondjGL2tBl+uMj6p6m2QRqYQvMAtMQhK9PvO+gemgji9L1OCSyaxDqKcx6ckmCad/FSFRl54SJaXkb56C+YSmXsHVoXF17DwRBxFpsmp0os4DJFzFNbmignVgX7Wlhdkld7PBuLp6Dxo/qiETEhPXp6id31U/t3Caj5JmBIA7At2Jgak0EPhR7fHxEE4YIDjDQArPCNAThywqeX5bbuoZF3e9FHgo/1FQRc9tkPbPEldT4GmIveXykoaHOujockdiLjIq0VV+9UtG5DNdEvp892F5SHaTJu5zH8EuYJrS0oVG1tFuFyOf3tY/y7T99JaWnq97P/JCIoprT4yrqjcTih3aKipyC1150Qr3k2/m9yMhwW4W9zKK2adjahihfI5WTXFo38vvwA5QbiR8dEQMnEKiaYIFZYhqCepBpGba8fy3jUHaOT2obaiuOfKqy4n/L5CxeZBUR4YJrbY0wvhBZVFzTkZXmqXXwj/+d8UJkImFRffYLX4UlK5awqU+G6S28x1zKGtBdZK3kf3p6egeHh/NcvXwfnQ+sGTme4mAuJ7Fb6JJ3fT9xKNFdglNCSPfciLR/oDnskaHwsf3C5yKILTi4RskriytHmZZR4mlifuQ1RfldAtSG+voHh1ElHx7RhGkABxhogVljmjTY3l4dbHfwL7aNfHJWQW8aCR01mQk2x4X5dq3bDJdNO/f+reQZXtQyMNzbXvI65OyudRu3/LMeFvEc5tO7bMT+K6/RJJg+9t+ffl7574aNm8ha4X92sHFKuuTnIWKCbTXE/iJr3Lx589o/eOUu2kSiOwffkd71dETbXpTm+h2WsmzebOIck5v05u5thZ2//715A1mTqLS4opL6AYqfJvYRcv2fGB2hNqRm4vy2sP/DI2LgBAJVEywwM0zD2VhKeGwCgtA/RPuNz9BQPwaREBQeGBafg2jqhd4N9RMQCbHhgSM54tPnfql1TR3wL42GCBhMUWTQM3+K6FV4eHpR6ZtnsXnVGGw3FlNdHPcyv753YMKPkshZ4OiUk/zZ/1lQZBEGQ0DDOeIoaWRqURWOaiFcVVFqJFn41M8vtaipA4tFVGeE0U6PjI9PyciLDUooxfQThiCou6mpiKYsPrWoCQd9bETUZsBfxltgZphmfL+BRmCBD1kAMP0hy4Dj89UCgOn5OnOg3x+yAGD6Q5YBx+erBRZ1TEOJjo4Gz6yZr0TM/34vwk9DiY6Ozskr6Bt8B7Y5ZYGhL/tfcvOF9umKPdKz8hn44GSgiiEWAM+fnvplCd4TwBAEGa4EMA2YBs9UnzoDs1gTxB4LDdyPeHfgp6d+pYHY4yNgzaIIMA2YXmguHDDNQKaHMLieFhS+cdTWhCa2dAy1d88sN92DmI6+FnQfunu4fdzrDLsH0O19rdh+zLjjC2gXMM1ApotDb59X2Lh5w6htj5Ci8uPGWsyE19pOK0PN+W9978tx3npe11UzrqG6OO8rDmfV/N4QSG3jRAtlFzDNQKazA8xkRVZt3anocMfV193Lz93O6Jz84dXcCnq+5Vl1vTMXYuLQVYVFwX5pReVR967evev+9m0T9YsC05CblB8dVVFBIC1UVw2YZjDTElv4BZ1rq1EDMMHInChXXY5/VqzVf/0qHzdzTFM8bmc3rtRdj1dCXsvDD0FleqE4448YEzA9nUwTsHkxbhf2//6LwuOAjDbKNLR39bcgipKTUsKjEsKj0qPiEZW4ARQVtbHShPCYlPC8VkRjc3lRRVp6eXFLa05cSkxUYUZRbSkCkRRXVNTS39JF5rWrB9WCTI0ryEN01GM6kYiKt68jX3sbn9jFc1jM+LJ/QnhUUnhUWSECmV9Um5mOqGpBJscV5BWUpmTmkHuSGB6Vk4XoqO98T39DdVFGSgIsjU4MT8mJi83NKmpB4N6f8BGwZlEEmJ5Gptu72rIjnY04mH5X9n+ahcIRSO34wbamhvS7x/l3r/ppyc9Lftr452qjeyXosq6hdpr0jjDvzj9/XPLzkiVLflqx6rvTvgGv3B21VI5xyV4O91b/e/WGJcflDSxuOBlzMYmYx6LzUGTIUDXVsbaCTPx6TsnRhWkRTuq7v/nu5x+//3bxt99+998ffvp5yRLmJUtUzO/bnNMyk+I19Iq15WPi0ZKXPiS0H+7Jkt9++i+r3O3417UDWAIJ1z2MwXVH3RA5yfYD3JPffvuJjXXjMg65+eDyAdPTyDQy/ambvuDq/x3UfFGX0QSnic2VOW/vyrIcs7B+Eh+TX54YHuh17uiWU/fdkxuQFKm9JMs6Tmmrp54J5Vn5qfEJbgrCLs/9HK21hLf+tHkdy2XHuNy4/IbygphXn2Dagvt3GbtHJsf2HhaTvmb/pjwrvzIrvxlR8Mx+hGlLPibmv3cqK90IjsgvT09LDzYXEtivpXYzPo1Aamtte2PDJbRT8KSBqw9FaiO0fwPHEcD01HlhcM2ZuY8I54hCS//4k01MTELm5GlZsZPqstq2t568TUL2NsLf6S350b6WnEKyDmlRlfg2AgndUJwXoL/3X5mLPjlpqJb8aNfLbOu2n7znGtdQDX/F96DaGxMjK8rS/W5pyfBsPqXilJuJ6mslkHANaRGfYNqaj0nbK/aW1Lh4GhHsOML0NT6mXcK6Pg/T0c0EUjuuszH+ihz7SRmDxy+bOhvq3thyMB2Xtr8Z2ljzXnpUEjDNYDKnrm7mmD76++q1/CrKmmdP8q7buJ6NTeZ+WAupFU8OD7CF8d6XRX7eelTLysjq9rXrt69ZXTLTOrbp5/UydjEhxYXx3pdEl+08/aA0saZvTDwKg6gqwnv+bimJfG0whGlbPkqg0kDu2+iEsryxNve+/B+b1G2iX1VOkM75dBPEHlO/UCbcG4f9NG3dIyvAUP/o7r1cyoahzRXYQXjhDHaumnu+W75u537W/TwHuN5veg9SozImuF5q4oibYabzqqrCzTlX8Gk5JUdPJB4wPXVkGFlz5vw0jWkcoSXWzVBp/w7mI84hiM4G/DCuMT3S2YSH6djlN9TEjkYtgUSVHjWLbsttG55NP51eWOalsur3A/KOSYBpRmLIUF2zwvRAS3n0s2tyu/7YKnQrO66SiOsqTwwwl/39H1Wf5lQk+Tt9NNNk6emlfx+0yXpTTpxNpvOrqyIv8zExnbQIDywBsQdDSWScsllhmoTDoUvifG6c3L6WTdv8WUkOqqso3tuG97cd3PZOccgKMtAoNCHt0ZOkcmQFAZZac/+6huXq7egasrSzuTXHwyYqOcLDdlw8jSt+63tJ/Lct4k6Fb6t7caiqrBAHXQHWv/7LrjKylmfN94eeV4GP7mE+8RMWV2Ood3ze54gfjqcrMMiSIJN9y9mVHa9HteAIva0tJSFmh/jW7hMGOSLjoPxCTbPENIHU1lCR/cxUePOWw1Lm14KKkgpL4t0MNARPyp+7dM7O3trO/qq1vbL6zacZ1dUEUiOiJNZVT5qDR1rXiCy9etlSm+u4+7OnztfHMU1Al6U/c5E/zCtqpGtsa21+7bKejtJJ3rU/7lelMf3nOa/qrMdXlc6ISHAqWFjbOVrbvY6OeWj1fn2avJhNJ2Lua0NVv7mvdPL4GakzF6zt7ly7dsPGQIhj7QExwPQXksi46jPDdHnUA+uLcmfPPW9BYmk/WuppaS4KMDouLSSvdys8sp6EwXaUP7+oJSc8kiMeFDlgER1V3E4JNlAoTIKjhLIENX2kSBPCnt66aax7PwBBGrlrSCDhsM3IrEfnRI4egXNNNWVdl9AsPx2Rs7cDC9OqSlICfXTEXEPr8XX5L10s1MhtHTnAdc050Mfhlof56JNbydFFFxGHCLPXNbckdxJH6MMRch6f1zwDKxc+JKjr4mslzCYlq+fzvH5C1DQ6gpoDn8G6x9QvnAnrHnN9ssfE6B+Hr3sY29GD6hzEjKxC4jCh547s0zhtHp748YpzQAqYBkzTuRQxmPYSX03HVzmhZbC0raXlzaXN+2QvGT4uhu/4zO0NMA2YpsMoGoXOdxY5KXn8wFEZyVMyJ6TkeZSMLPySU6q65jjQOAIJMA2YpsM0Ftdd89bzts1lHX0jeDtvruOVk47Az32gvyKm+6ehxMbGZuUU4HtJYJtTFugfpD38e+oOa+7XXNQ6DSUiIgI8L2/uz/1C7eGioWkosbGxgOmFSszcH9d0rU8Dpuf+3C/UHgKmF+rMfr3jAkx/vXO/UEcOmF6oM/v1jgsw/fXO/UId+YJmujM3wTfwgX1MKQSR3+m8UCcRjGuMBWaGaVRtesSL22OKi8/z4OKu3kHyy7vHdOmLdwa7eltygl3j8lI8b+tfUhR1iYeg/i/WChTMFwvMDNO5YZZyIkt+W76Jg5Obl4+Pj499x36+g5wXXsRXdHT1feotI4P4rpbawrTihq7BT54L272vtavk2SXxuy9eOFgBpucLiYzr58wxLb1NQNQDiSUOwZ2viXh9TfjnZcwsV1OSa4mfGA4uI8XdRIBZ1C4N+8lzx6hqDfUETI+xyFexM0tMDzZXvLljwL58hcaziBLsJywNmP6EgYB4jAVmiWkIV5vibsnz+1Jlv7AiNKVHpP5uTLy9jYmaDFz01XX8Uzp68FBdnr/l/9u7E6gmkjQAwLOru8/BY97gIKMuXojoqKiDB6MgorDCTlAOFVFUVDACIwhExIgCAwo8FRFXvM3oSFQuEQjHBOQygXBD5EwQIjEJhBBIgDBA7H0dxtgBxI0POUz1q8erTv3po+rrSlUDHbc1S1QnzV5haGG609raGut1IaW4o6U43NHrmCQW/mFjbY29lVZVI4SgrkZBdfwF9L2khKv+oJ+WaW6FWBkd0yJW7vMbzqbLlm8OfkFmCCEI6m5lvs665++Gdjju7ITBuNg5HP55/+HbGSTmy8JnF32M1sxRUtezdrRzwWAwl6/cfVHewc8Nd7/kDa9jMBg3Z2f7f+vvQF8NI9I57bVc0gXTGY4hN/1OAtMKwVjmJEfO9I55q9ZjHsUmpaanp8fdCfA7arXFDIujtrJEEAR1cqlJMY5G2odwESWsNggSNeQVhVkuXHciJKWygTPIeLq3t5fNZotE8JshCOrt5LEjbbevstp3OprUAkzLtLGirYycaeO/T5g4afKUKVOVJk38xxwjA7cYmhiSTBgh6G11ybNgtIqJP7GujCOAF05ZHdHbRGWj+40scs0gpvvaqbe7U9QhieezBdRQF33zw8fuPKMB04rGWOZ8R870Lg2dzX7Pc4srYs4amK5U1zI587AB6ui7j9eaR7rrtGHC5Flq6vMXLoKXhfPV1b6bPEFpmx8hMf+DpqkP0e7mkniNhYvmq36rpIUCpmXaVxFXRs609F4er+bZ/ZPmZrpGhj5p5W1d8G9D4DsbLnrf/LjH52YIDo9c0qlMZv0A0/AsMOoC+pCFqQ365K9heDz+IQ5/xR611HAPMK2IjGXOeRRMQ1BbfWbYZXujRav2nyO+etXaDXWUUB5iLVTWeiZyqvgyxwevDLyXx6/iJGLWqqzdgr6Go9S3QRDU0w7V3Tqx2dIOmB5Qf4r2wqiYhiBBeUmEl83SuSsP348s4LR1Myv/uOihMcP8TFYqTdgpaQRxT08Lnd4sFHYKCnJwnv/5Th8Tz6hskQxWml+yoo5pTjc7EU4pkUSLu1pbXmDtfzLeB0wrGuEB5ztKpiGoo46cc95ATXndwVBiBqubVZb42E51jvJer0hyURu8NDU0xGM8E0vL6BCdSvB3UJ2liyWmlLLb2trbudWcnPM71ZStTj95IonmNlQne8zTmfuDCTA9oI0V7YVRMy3u5vFosQGGs7U19Pf4RKY0tLfUUjLObf9ZX2te36xvmfa/DtyNL33TDXV3MUhll8znqi9Sg6eQ5juO4DJ5tOwAQyOdJbMk0VortRy9XQ2XoGyBaUUjPOB8R8Y0j0klkwhpmfT2rh7pv+P39HRx6ZkxhKiE9IJaZif0tqernZ6ZRoj6a44YEY0n1zH5kjvQIn5nHflpdISkKDkls4bd09WGCI6IjCRTqemEbEpBLVMg7OJWZsbkV9NflhSU5mTWcCDoY38nNaBiwAvjtgZGxvS4rR5w4OOwBoDpcdho4JCHrAFgesjqAYXjsAaA6XHYaOCQh6yBr1o+w5KUlASeWTNktYPCz1gDX0nuBQ/zj+Tk5PzCYlH3W5DGVA30KMbdn8819iBTisbF42sV6iDB86c//dPhS/7ui7H9TQBDX6LANDA9yDPVh0YzxkuBaWAamP50A6P4TjCe/tLgDvFZAfrpT7/ShnM8zWssL6Hn5L6uFYq543ksOwS1ESsCpofXdC+3VcTi8Bksfn1fYgsYzX82Cz7WTfZ9ZbLJ1ViheOx/WduI6fy0HQHTw2u6pSwLH4jS0FqssUBdknQt1/mRqliijzQPMD18n07A9DCabs4j3PA7bLZ2k73XNdw1HP4O7lbApVC74+F5TOFHel9gGpiWU+KIzBE5BXifvWZr1uthcyhvRGy4kYR0Wm1yVE4lt2/1wyMQYBqYHoumYZdbDVajjiWI65oH4cuspxeRU2MTpCn7jxfV5Vxxk0DMkzXNrq/OI2dLIp/HJlCL6tuYfU3e9ievoSYrq68oNTYxPTaz9iWzvXH4QHxkjDQedgTGHnJeHYjw/vc96HFXnUw2axsfjWytZPfAUmUFFESf8zKdOm3aN31p6mR1rU2uAZSOVy29zVLTgl4mT1jwu7u9yaIpcKTqlK/3uD/MI/G6mwU9zY3shkhnYx1NpSnwRqYqz1bS9r5MpNFkd9Rvv4q2CkwjkMqZ7W+aT48PRu/WnPz9kg0Oj9i5jP6ma6ppOaTs/JKqvpT6INB7D0p9deCD2lbaO9PRTc0F949Y7sXYB0YnllTlkinPzm4z2uuLeVBY3VRfm3X5wDI1M5c7wXHwRkgvCsPQHuGk0kJgGlEDwLSckBHh/U0L22ll8Tgvyw3//Hrhmm1bUFbmlg6/nHnw9JWY1Qb7ZvNEb7jt0l6TXZ702Mdu+Yw958hNpS+fhhw9ZWXiH173PHDLVjvsozs5TW+E4mYe/3Wat43h/gMnnxCq6DVEv60qKw4HpcbR4A1yW7qqyEUVTB4D0aLS7StsBphGIJUzO8C0mCdsrMhPvu2CcXPB/OJig9LRWb0AtfNsegars29AzKyrIUcFBQYG+foH+WKdDm3fqqmCOkVsLCyRmDb0xBVc26m6zGS7gx1WEvOrn6+75foFy4xtg2/kMeiU0N2qS40lpcF3ouIrxKzW/p8GCktZeuLAtJyQEeGDmUYKq0z+r4etxsrZqvsC87hUdmN5cVHEjWAPy8W6BhvX6xvorddeofHDTBWUp9S0vutdou8mldmaGj+uXG+gp/8+2Xrjfi/mvWakBJtvt9BZrjFbea6mjvn55+FPETNI0FtLagCYRiCVM/sx02Ieg0S4YveTstq+u8xsUsxltInG9FVzLHApDEGDsK8Uo6uC8npv2u1uWsBmlY1OIZlJ9cjLQzZPTwg7brFy2tSpk7+d+LddmEeFFMnYRtpRKXgGmJYTMiL8/zPtpqtidDKRU5ByHWt9cJWB/y0av661B/6jDli8rGnj0/cr7h38fuZBr/gnZbKOkX0wX1Bf11Cam5b6m4ue8kwrH0Jk+YeDkW9UjDwwjUAqZ7a/aWoSLireJ5Ym7SYr065fdDBcsM77AZVPL8YHHjLX3WDnTxEzWmCCcOl+bTXk2MPkAp5RGGqhulnX6fj1/KJ3BItikzKy84ve1NVn/eb9tDb3VSe8Cwa1Eu+0ePpy66DUODow/b4GgGk5ISPC+5uuirroe8II5QzP/yTJ+ai9jS3aMSyniCNis6jxl4/ZGW/YcCjolA8c4H/a/ojZRnXkHNHkahSXT4ryPbNvr83BY+h320E7BYVGZFPZNfSMgN1Wnsfd/ODtex73tNm02jzoQkJtSeP7FpVeUQqbAaYRSOXM9jctrEy+6e+MmNjpWXg4hmRXCMVNkh63Pj8Bf26/dOZn6+qBPXfdcRv2JqWlojr78cXbZ0/EZAjFHKGYRrwe6LpLGqnniruW9ponfDdHfLcLQ9QOr7imwgYAWqYGgGk5ISPCB5iWqVmF7SZH/cSBaQRSObPA9KjzHfQAgGk5ISPCgelBSY36i8A0AqmcWWB61PkOegCKYrrrMyxEIpGSXyzofAvSmKoBxMO/5eylxlX4V6zPsBAIBPC8vHHF4Is62P8BFG4e6BtU4egAAAAASUVORK5CYII=;" vertex="1" parent="1">
          <mxGeometry x="120" y="150" width="241" height="358" as="geometry" />
        </mxCell>
        <mxCell id="wYbG2ShE4yD7E5KdKAoz-2" value="" style="shape=image;verticalLabelPosition=bottom;labelBackgroundColor=default;verticalAlign=top;aspect=fixed;imageAspect=0;image=data:image/png,iVBORw0KGgoAAAANSUhEUgAAAMIAAAFfCAIAAACTDIRPAAAgAElEQVR4AeydCTxUax/Hb/d971r3vS2X7q17u/e2aC9FiCJLoRAq2WWXtSwJlSVUyBLKllCWJIXs+27s+zYYy1jGzBhm7Ezzfs4ZI0KFIct5PueTmfOcZ/s/3/N//s+h8/uGNMuUmJiYBSvEEojQsaQs0D/0fpYzSc3Lv5ltZRBGS4qe8c5AGEGOjQoWgDCighHHb8pV+wHCCMKIChZYIRi1t6MSbc9Knj12lIF8sB5lkDEJKExvpYKNvr6PQbc0ZPup89z3iq0pXZLbixWAUXt5TriTvIrQWbGrxuYWDq52Dq52tvZ26hLCFiGPUtsXBAJkUZSvn/39kMhGYnsPtUlF1eXHhlhdcw0u7anFgpXjcK11hS/dUtIrOhEQRlP2ZVTYqTVWRr6wkGD7hYlTN/hVMaqFbGVcL7Yg+H5Qmn/WwmAEf+OopijAoedQTmzGURujpsxIJ/0TNAK34lEFHdSufGEoXO7eiJDha6jDsWsr/f0X9d11M9gI0z3YVFsCyy1IyShIya5IL+1sxo2gCURsN765sSUvu7qqDpGdXwrkZhSn5cArO4bGfAyut6O5ISOnEMwil+1oxnVVJ7vduSh8kkFG71VBdGpBSkZtcTWyprElL6e2qgNbXlwFy6iEFTc3dLTl59SUN+JbukEa8CNYbGd5cV1JdSeia4yPjtaWshJy02D3SmphyS+f3ZA9suGk0pOEgISClLGq2vNzmmpae9sIRBS6q76iID0LvB5Wm1fb1U4gYghEbFcXvBpRmF9bWdeQlk3uc2l2cQscS0TjFxbH5Y5RboCxpOhezjOP6mo7hmZav9qQLW+vb2X8+1sgbTxAe9YjuhEP+K3mrKhHBifXs982Udi77x8we9OvmwUN41GFZDfQUFzhJb1l0zowi1zWOboxzOwsM/2aNWu+WbNmLINP7KrJvUcGJzefuR0fpHGK5ci3jIyndL3jrTk3c2k9SottBmcRh8eWe2iduiBz1fMFfGxeK17qq57eNlbNt99+e5rvyFFG7jVrvvlmDaV2clW2nJvV7wUX5xGINdlhbuLfjnXqTz52nbdFBCKKQMTC3zpdVRLcx2toIv3renKft+09pb8gLnPyHbvMMUJEumqe4zl6Vvl1fwN6dFqM6otTg4xYj55WN3EPDU2Ne/7EXOHkIfqb4eHFGCywfKge+eH3bRxGRl7vQlNh7wKfOiuf2nv09v3omtLWklRfY4lDuwVNozzewhJSYSG+r23UTEJamrISHt8SFTpxVOp6ECwiCZaQWlWQE/XKSfXIf2m37dbQd3n7KrUsKzOrIN7qNA2nplNaTNM4Ru6aHKLSah7P4cTOTmxF4HUZbh7+K2YWr2EJqekJqa5ayvfNrpvY6knTbzih4BL7PAaWMFaVzWmaq9bBRW9j3W00z9CfM3aJSHmXGvnIRFns3Hl2W1hN+wAWWGoFD9LQ771g5/wu7V0qLPSxmZH4+f0cToGInvrJEz+treZ8cpljlO9tLnvuKKuieTaxibJMTLZFe16U8w16Gg69uNdFuDZCf2NRTKge92/0d2yiamoAjLSYf2U4Z5EUUYED1gtESZ6P6tGNQtc8s1OqgFy235i1Q9thSICD1qbOksTMEuxA69TYiFzVuiPntN8EF4GBcEddbbwV74wYdbc0Jrue28fBf+2aR24RioglDGMJzRmJ5bD4NyEfxUZAVTa8AEZhzg+vqnGy898vL2wfRBEIVdGu9xVEfzvhFNbQ0wT06vKJ/ZdkPMqLUYMoArGt7J3/bfl9m2Xu5aBLydH6wsC0/DGSETjKqmQxE0aYkkQfY5FNB9WDWrPJK0tzeVWQ7r5Nl3V9cjPgU4LZiXNfVRDnefPML4fO69rftvd4HpWf1Ti2EoH3/eQQe2pcPLGqqd6osrm+8Ins5p2iekE+efhJ6E9fFYiRz6NberLiLFLGKcRGMhZVsSEWGts3Kz8sxJRXTgn8p1YFYUQikT7+nRrinasGsKiphA5Mv6hNtePE2S3+JEZNiNyYx7qHDh3b8xfNuh/3n1HReVqaDmup7xpGTe+NJm+vJjY0FaPiKb5qfIKn7zOIkZOF9kc7xIkXF0MYTXkYMO2JjzEi5AYYASE2r3P99CH2RCuTo+aJs/sZjIhY/Cimqxtd6qbBvm8LEPL+s2mLgVttVw2E0Tj04IdlvqgR8Ok+hjrsdH8etfGv754misRVJPvfEt+4U9kPmUFekhpLK/3Utm88ecUpLeazGBGIWPwIFtNRWliSGvHUUe8S/aYDqkGt2blfcN9P5HWqN6pubSj3Uv79z7NXfdwzcV+6qPk/MbshLcV0UT+eiCAvauWRL+/IbKYRuBmPKoC80bS+Z+rJKd6IiKh499zsMusvLNwGISEllMePPf3YxjSft3lROdVF8V7m7JuOyAc9z0G1EPC1OaFP5Y9uZDe6H1ZdXfvJRa2gOD892iausxkzAkxzVWzIXem/f2PRCG2H1SY/1ZUVPiqm9LqzAQ3mTnV7uOb6gseym3eJ6r/0zcdjsajm4lAbBd5jf7AIAju13pZGmKvA5uMsalquOSXAPT2EJVSGv0iLjXj7xsdYaMOBiy6lyXUDQNMAkeQQO97j8TUtXpbj+mnZrf3thK7CkPvG4jy/nbN/U9bdCMVGU4mZ9sxUjLCE9rLskIdSYuzHxVQMrayc3R2c3R2cXB3MrqvcD/dJaW+szot0FOPmIOfa3zLUEubgE3ZMTaruBjf8Mwc0+Slx/paCEtb37Z4Add7RuCZ7geHio2eFPbXYhjSvW3p83PslrC2B3Miw8EC/j7ZXhG5kS6qPAp+oqJaCnr3DQydbI0NVMY4Df7AIgBt+VCc257neVX7+izIaekC3XR2cr1+QsX/wNDozydv2zJEDIsbaZs4Ozq+f+4enxdvwgBv+qOyX7rfE2Dhk9B88euBsc01JVviiypXnFfWdg18U+E9ejCZ5wXlkLfdFjbx16kW2FPpe5RJkoz94mHwcO3hY4uaLgjTgV7OTc9kusF8NSW3pbSUQsa3FKS/sZU9pO2VhyzrBqjqbG7K8VE8pWwFlwRD7MP2xsTrpeSS0rVOITWNbpOQIR3VKc+q6Fs4eH1UFPCXvxdaGWMpf4AJq4Gc7ZRWU5aMvr3fT4nU4YmzTl+WjrSs23m36g8qPH8YgsM3VtSHGnCePg/VLiMnbhWT5yJ+y8oipLiF0lWW+eniJnoUBLMWjLncvqZxA7CQQsYgkPwszDXl731oikvzcfOoA58HKJ5hbGRgBU4LBj6B7Jh2YCb8BmJSL//CgEoMfxfSMAr9J+HCAZ8hlgdyJdY5OqHMUgx+ltAh8nq4qIpYwOqHpUQzwFTzGm/uoCSAX7MyHykfQeLBgDyWLMLFXQG2Uzk+pHDDL1AFOHCx1Pq8cjCimpI5doNpmZQEIIwg7KlgAwogKRpzVjbsiL/7KGA3PMsXHx+fkFXX3EaFjSVlgcPir/gej1lmmyMjIoqKiaZ8FQCdXrQW+maUzGo6Pj4cwWrW4zDTwufwRLYTRTNZctechjFbt1FNz4BBG1LTmqq0LwmjVTj01Bw5hRE1rrtq6IIxW7dRTc+BUw2h0qK8V5v82wIOSnnp4vEmrakcNUrO7UF1L0wJUwWiwv7utJi3e4+qhsxz7Dx0FEz3D0V2n5FwSYpsgjpbm1FOzV1TBCF4SYSb9w69rGczc0+sw78E00PU+0UDwjrdZBJya/YXqWpIWoAJGzWmPHGWO/ksrb5laU0MYHCGPkzhKwrfAW9GtOMgbLcmZp2qn5o9RY5qLuhoTI5Pqu8Kugf4ZOjfSj6t+feOekSqQrpvpu6bXEQaHSCRSbwM87bW9jm10hK+Z2Vi2jr5rRB0BDWSTSPgWXM7TG7paYMkJZbuLM4L83OxD0jGkQSJ4JbkqfdfoOgIaVZwR5ORkZuYbEWGro3N9rFl719RWQmtqiL3ZTbAfkxoikYiDBEy6q70Z+XIj3Ruvc3D9+PFO6jtG1+W/sr9npWp1zyW5mkQau2FmGPKqOj1vjPpSX968IEJ/RiYIje0jz+fHBuzHNlZGOxrJccteEZdVkRUXv8zJq3TrXXkttp+EzU531z6xdv8FBe3LahqyKiryYLbYrXcxtdjuQVQ7zN9PnZNJQP6CjIqKioqMrJaYjF0yFt/dFualpXSBy8ADQeolzydQlQEXraB1JroeHualxcv6735uTVs9FXVNFRXZ8+y8XCyHZKweOtvfNdC99lFDJNIIvr01J9DBUElZTQHsxhWJ0/IaLzJh7fhBcid/OXThho2hjv4NFUtrCKPJkzxvjJpePVbn5zx+8XYGqXv65WsQmRf0RHTDDhGXF3nIblI3Mu+Fi8iODaJPgvKQ4AypMv209W9h14ACZDeJ1N+ck28v8O96qduvC6tQ2enuquybdl4NbitDAx3H1tZmODpm4PHYz2MkSL/1OL16aGFXfz+J1F34wleb+Zeftm4ZbwiRlXfv9OZfJY1fF1aNDGIrYiOu8RyU8vjQjUfn/z1u9Ci+uhXsBtN/N/9Nd/NRcm3zZAtC30gk0rwxyncxkzq/n0v/g1f42K7wknBTlU1bVJ63lqDAPFRJ63OVLZtUTMNL4OMuJKOzvhfM7a1HZ1gL0nIZuKdnwyc4GHIuiUR6D/5hzecxUrrApe/RQCJM8FWctILW4w0B3ZDfspFdyT09GwsvCXdS3yxoM547bTfGcz8e42r/Pm+MGsne6NKM3qgnL8vbkJ+G2yypEw4EGiQSHt6ZZMZNw2/onZWHmAJKbz06k4IRqqrw9W2x79bv3EN/8Cij9C334ErKhH0RRjMseWQigW6YctNw6rqnZyPysry12L9b/y/YECMjI+PRg/R7tq7/7hcRy6jo/CmdpPQC+km2wLwx+hAbYaaPjcb9TSb6g78ZB2Wqv5mIEbYb05if+PjRUyvpM7u30O1iOCFKiXznj9HEhoBuaJ8Aoh87y0duE1NkfmNjA4TRZ+6XeWNEGt+pRU6/U+stgj03EqY5bhTdUd0N9qa7uiP65nGaU9rTLlsTZxcLXk8cJKHTQh6aGsqeFzrJunOzyIM8NKL+syH2zAH4+Oo5TnPzlE5OtNvUO2FiLvSZCrERidSc9sgBfG5klTbhudF7ImkI3dLehe6urYx5oLv990sOJVlNgyOkkcGmrBIH0d+3i+q/yCv99KLW1k3oaq9DD40QwXgIlZ7iosC4aadacFtZVZTPdYWLJ9VtS4bww+9Jwzh0eegLE3kWWkGrsZ3abDDCNgOd/HfzJavc1IZ+8lbh/egoHons7u8H9wGUPeB4iAbRM8EC8/dGJBKptiTcVOr7X9cymrtn1JM9CGmkl4TwNLB55RVRiyoJfy7/6yZ2c/f0eiwJW5/ubs6+6Vf55+ElKHDDP3mGJnojWETGKxshTwSavKeHR4Sbiv9KK2gGrI/54aZS4vu5BMm5bWFe2nx71mwcywU2/LPCiAR0UurnTWulzcJLyM/dB3G4pBs3okom7APG1+UJFoQ+UmOnBlhxsB9XV5Hgc5vvAOexg/RAgMrIyMDEeJBP9XFSUtPgSH97S5GP6VlyLv3BY5wHzpr6FLW09498BqPW0sIwc4m/D7IcYQDqPLDz5Onz8p7wGuzIILEPVxUWeleG5e+DjEcYGA/LqGldMzGWZ56jNyKN9ONQFYmRt4WFzrAcAEdw9DgHnbxHRAn5qcRk1iF2JluAKt6IRCKNDA+0V0b7Bj8bD0893dxep1a2dwArxOTcZ8G+0ZXtA8PATnywo70yO8I3urB9oIe8Mx/pGWgvjPaNyAbKgiG2m9tTSq3+odE5raShUXAQQNnU125unkBuZGJGbul4Vd2IqozUuIjsSjxp7D/efKYhoML3wwP4yuiI8TE89XFLrG3E9E/TyclGhL5RCyPIkqvaAhBGq3r6qTV4CCNqWXJV1wNhtKqnn1qD/wY3yxQTEwP9d0dqWX/F1DMXjPILigaH30PHkrLAyPR/pLNIoM5lUYMki5fgq22+8otpZovrdK8QhV5Q9PUtAGH09edgCXqX2XYJwgjCiAoWgDCighFne++uvOshjCCMqGABCCMqGHHleZfZjmiFYNTe3pFgwyvOd/QwPflgPkwvZeRfsEIE1Mffxb5UP6wAjNrLst86yCoK8F9WN7G0fOTm8MjNwd7JQVNS2OKVUwpVla+xqOaSyAfads9iapaLJvVs/crcrl/2GCEq370wv8z6CzO3/gQFI0BA/ZXNy/SAbKpiNFXbaqm6h7nRMOdSyx0jAqintuvPIzPpqeGbEU2wrOrKDkxpYUVWWlFKZmlWQUFSeSeic5JSdgeyqaSiAVbZ1tLRmptVVVbbVFRWnZGWm5iWn5hWV4HsbSP0I+tykl3VWTcwiul7OL/LTUwrTsluqusaBlRdkS0VRbmJwPW5ibCGkkZ8x2oibLlj9IXqjjwmcYHqHMz0a/5av2HPYdZN30n7+k92VBVBesqyiieV7BPirbhpTmka6Utf5t21Zs2aNWvXfCN542VRHqE6LfiO2Jo1P38DipsDWX9vBMUeqwmjucF3bvAAp4C0S1HZJbMCwmi2v6OY6/Xz/p0aInJMa/b1J7RmAV3zv3ap67uEhaQVp0aGvrt/8bd/rpu9LS8dm+kBLCHHXZrririRcWB+ebz5GZrftzOpKt0PCU9Li4zw1mXdySxgZBwIK6mDpTzWYAO8kadLZF5SWklqdnNd13C6r46mrCifip1/Wk58WtjdK3z8kjpKvuVzXiOWXcFl7o3yvc1lzh1lVZpRQB0QXdRi/uWo4LW3r4rQCAIRi0bWZ3jLHT0mYx0aVAZKTuN6sAVOCheUFE1eRlfU1cbf5aU5yKvi9SS9vYUwhGqvz35wno1RRNg4JLp2qs4wIMnorcQhJaqm4dvQRBjFELqLfXUVROXZlF7mEIio1eGTlj9GsueOsip+EqPJ+o2E/taW0iCVA2cUHpi+rgNBqct+IMSvYGPoX4GYGkRjcdjUu2IsZwFJxqly1fhebFvondOcsrI2LvmUR1D53uaySidPW/u1EZETNN2WnY/58g4vc4wQka6aoID66/4vFVAnEDs70RUBioKCOmq2iXmYrqbqaDP23eImz71ycKCqqxUvDaemU1rMVJ3hqRjh8Nhyd00OUWlQ93PM7lN1sVe6T1rmGBFyA4xBAfVHdV8qoA7MaD+WkGDDL3MdcDDw2vgHvKCMa96YOPAUjMrcNQBQPF98GqNaijeqnaKLDWE01/D5S8rNO8QmEDJ8DHU4dv155MH0AupTBamBGR3FErojzM5LKqjyGzr66+37U/TJs9TmtmkxwnZh424JMcmL3Xgdg5wSG+H7sNhIS94TspKWDtkUjLLdbkmKHubQcygnNuMoJ1c0ScvdGxERlZEvzMVZf2Hm0n81WUA99dmb3MioN5EfC1KPzWttwn0j5fP7dp84zXBM6ElBErwXWJI+jo26kU0pPpePcwvdNfIrr8U11xeCmuh6QT75YHhOGMYSWl7qcksIy0g7FsIJI2gCKtVR4bLwJTbtwOw2IgqKjb7En8zvmvl7IyIooP7aXuYyB+slZYO7d52e2Ds9sXdwtr9zTfl+hM+btzNhhEVm+BiLsdFsXb9PwzEXU0nWswYwustLc4D3sr72vSf2TjZW1mqcRwWuPoiJArZ1AFW+l1m5hVTFrtvZOz139czKQw3kRD24rSZ2VuSqiZOrnZOlgsh5YTUrs6iGLw9Rl/uVy94bgRPQi0QW+WmcFmZnoD9CPljoj0gZ+xemV5Wk+jte4brmnIUtR3+0viAiHa7KHDuyW/Z1cjOopz7mjcx5af7Yvm33rkNgVce56A3fvStGj800tgeb6nhVSgBsSID9tONLRE89AZUeaGN8ntL6eQvzwJLaFb2KfcT9ysDoIz6+8CvwBFyOUUD7HRGBoRT5eFGjnF9NTHyEyJd8Xb0Y1UZb6irJ8yh6xbcT28cjGAijOd0wqxOjQSyhIlBH6JLQVQmnoiYCETNuOwijcVPM5sPqxAj4DUa4/T0720CfrK5JThuLai6NstF56BNbW4iCVrQvtcBXxmgOksU5eUU9fUToWFIWgATU5/fIAiq9BCwACagvgUlY/l2Yy+NH6I0iy3/eqTwCCCMqG3R1VgdhtDrnncqjhjCiskFXZ3UQRqtz3qk8aggjKht0dVY3f4w6G/MS3j2ZnF6E+mUje8fegr46Dbu6Rj1/jPLDzaSE1q7/ffexowzHwHRw/8kze2TcYpKqkLi+gc/akzg4QmirLapu7iSMSeh9tgh0wRKzAHUwUmEWvJFIomhcA3rqMt+uW7tGyjSsuBbUHvrUqCdqzYzp1nzqcihvCVpgITAa7O9uqEryNWXfySZsZPGmFFSJnXnsEEYz22a55CwERqDWDAFR5STMwcJ61sDrXSNpuB9XFaJvbahMSWrKypa+qfD6XlRL/gsXoWO7ftpy6ITgeRllZWXDa/ohObj+siRnr7uUy4Gftx0D04vJwn7Lxbqrpp8LhBGJNEIgVTurn9rDceHmvdS+od6uPB91SwNFNTCpKCpKcrCLabp5puQWFfg/Fmbe9dNWevbzIlfU1NSM9Qxfw7r7YZG2j02B7+Qkw8d7Wfa2aVAZkkQiCxitmjlaBgNdMIxIgyRSoosg83leLYOwttHR0dbW1n5AyhxIo33Y1iAZAfrLMrdCs3ATNIonxEZoNLqnp2fchOgEc8PzF0+efRg1SBr4bLw1Xgz6sCgWWCSMxsby/v17IpiG8MR6d31OUSUtrzD49BgBRd6PFyASkW88tRQvcE0Qs14UA0GNfIkFFhWjyiAdY8kjQKI/fGT/Ntpf6AU/iVFTqpubOnj9kSNHDmzfRrOPAcLoS2Z10a9ZMIyGCaSqR1c5Tp2Ts3HPbSLAw52va0qKSqnoGdl5enq6u3jel+XdwyUxLUag1PUruzuql2UkFTXve3q6e3p62mnKcfNxQxgtOiJf0uACYTQyjG+odBDiYLlw2Sw0q6m6I/oGC81Rdnknj8wGYLMFCBp7GHBdmH5RG8aTSmyVTnIzndYzfl2CIZEAWZW2KSrEXzI+6JpFscBCYDTQh6srj/O+fXLXCVETy7dlaHRZW7DGzk0XDYPySsGn2sShnh6YmRrbWVktr7D6Rkye3aXNLBr28UmtoN7sYDcp4/al45ISN4NSKILlvRVe9vKXzkHeaFGwmG0jVMKIScAggdjVT46fa4rCTKXWrFv3rYxZBChG3tuAzjQX2vyruGlYWA1wTX9XS+KNrcx/7+HT8gprQ3W3vjDcuolXyc0zEw1kDxPeIzwNuA8IS5k655LrJOa5CEox/LUfwmi2M7wo11MHI8Gff6XdeeTQYXI4vG8P22k6Oc/4tNq27n5A+Jo4NIiuTDfnPMNGv30fcA0LK4v2HS3uvefkAIxGRnubWr0VBTiYttEdPHLk7KnT9pFIRJKnitq5w3/uHgux5bWuiPKIQd5oUaiYdSPzxwjdVJAc7Tk5BYb5w1r7JvyG//3IAL46NjLEj3zdM1/f5MLC6JCEtKzqxj4SaXSI1AqLDQsEcwP9/GHwviFsIywrOmC83ui0tLjotIRIWDWeNAI9N5r1RC9sgfljtLD9g2pfFhaAMFoW07TUOwlhtNRnaFn0D8JoWUzTUu/kXJSvof/uuNRnddH79033LFNMTAwkoL6kpNPJnYEE1L/03SuT3l8zm3f/rIaCX/nFNLP1f5CA+tKEEsII8kZUsACEERWMuDQ9xGL2CsIIwogKFlhlGOF6mhoaczKqK9qH2nqoYL7FvOOXclvLHaNRDH4E3T3cOeVA40c/vF92fGM1vYTIQvM0iukZQfdM15/xji3zD8sdo7IIRyOFQ4cPTD6OHOcUdSpMqQFlQCbO0FfBCJHkZ/FI72pgPIHYPrEzK+jzcscIeNO+wB979kves7Z3d3L1JB/OHi+eZ7RVtU0SJQYWhYXGqKcf25jibeni4p2SgqQ4ORQClpgbEVZeQSB2riB0Ji6yKwEj0b2cvM710+upfTRtC43RtCp9H/VhJX5d+RihOrHw0pzktJz4lJz4aL9HJqonaARuxaMKWrA1lfV5BY01GCKaLPYwJQBHY7qbakqT02FA2ZSc+KyylCpcR/dIS311QS54hnw+pRhW2dHQNdiJbioNuS11hJNf1Ng8JCc+JTc+BV7e0FJa2VRQ1NZIIKIJxA9lU/Pic5tr2vsBPdqeflQ7MjejorS8FlZYCjYHi08pLWzoXhaKbCsCoz2nzjjVVrf2Twi0RzBkMvCjVZlvHout2bTuP0D6a9sGOpYxjIqnaDB+5Kvwo80lKe+MGGjX//gtWPrbv5n/0ImvQPYn2QuJMYCnyOe/3cOl5uFX09YAf66z9be/ABH1b8Eiv/znPzI3H1noqBld5nd+SyC29gwn2AlcOgrm/rjhW/o7D2Nr4fhxHbdTGrLiXKcZwbI/fvstg7RjSnTjMojNVwJGp39c98ufe/ceGA+0TzJzaD3MxJZ1EktiHj+QZt23U840IvVtZkFKqOuDq6K0NAI341EFn8MIkf3a20D04B5eJY+kwMSClMy33l7OUsI+GY34nPzstJTklMwC8vH6gbLcORk+Jb9YdEvRWzMZBq5zF+9YhRekZBalZCKqCgJtQIyC2zve3ecRFJZTMPd5nZkZE+2rz7OPTdXhQQwClAM056X5/V96eTmr4NeZBUmJSUGGvNwnNFQfJmct+XVwJWA0JcT2e/w0Nrm+rwnX8M5OTY2V9ezNnPTWgVYCEQtPenP/6j4aAePPY9QQ76J3lZ39iIL/uypCE6D1iaurr4sLq6xDDzWiCG2Y/vEYE5ntZiYpxcVt6lWHR5ZMq2BsdJnf6kVDvBkrjZCS88PYdiQozZ5jI8x2SkfBLqV4TA7wIJ/qU7f0diSBiMF2NcWbSDJdlNB5HjoerS9VnlYCRjOG2Kjkp7qyl1mkTSXovWMAACAASURBVFKJjWTxxonL1qe9UQNQVviomHJoZwN6ZJyY8Q+IClhCsIutPXiYqV46eeYkh55DMb65eAaMTt/0KXgstplO6W5MaBW4iQOk2S3FWGTEdYMiGqao2C6raH1FY1Tx0lZJjmeidPCXYzQVMrInwI9gMe0l+cX+tnrqgnQHGJmOMjIxHKb7m3Y//acx4rj+NN7q1Dyl2SFvNN3fhMzlj2izYIXjLgFLAJ4bzeiN0pwNLwvtYdezL6MoUM8Co7dOaooC7LoPS0cn7ZVweGyZuwb7ga1/8nNcCysiPwqCU6L1T3gjACPrUzSnNJ1SY5pAbzRWlag0oOMOeaPpAPmycwuMUWWwnTLfCaYL+nEUGdAvxwiZ6XdDWuTguYvPWupQwx/AxXRh40yEmCTPqj31r+1qJ0v6fQlGvCa+5V5yv2+Vv/PuZRmI0VhVfLwQRl+Gy0xXLTBGqKKXd2VFj7Ew66ZkIfvbCcTqZA8HBea/aQSM4lEFiBRvPRnhI5cUQ1D16BEssuDdk5vSLJTcDlTik2tqxw/Q8T0Na8Q3AqtJe1kx7KlVREmC5WVWTiGlR94VY8+pi1/pap5hZuLQcyjtbW4JvXOaU0T0jnkCdgw+ADKjy/w2AY25DkKbeS6b33kFbyD0tyHLInTZGHnVFBxTShCQN5oJks+fpw5GAr/T7RUzN7v/aCzgtXd56PLUO7W1sq2zMN7dWlnw8D5Jnbv2VvYutmaqqudZ/yVj1IFIf2FtcvH8STFzi/uPbM0sb6pJC54YzyXW5EQ8M5biZ+C5YmlrCoTSprpGRnyXfWFFsU7q/JfOi4nojoXYNsZiwsePMwNB2FAzrirCRFpa4CKHgpWtvZutfVxCgpcFuOEP6cSkBajLX7x0WUH/tr29ldXNi+xconf8fXI6wA2/Fe9MkRN8jNcPTnGJBUnLPcSuiHS5rcrIxDD5YObgE3cpSq3txRIa8+LcbzAysYIXiKtr65k6KZzWdckG9dRbS1IDLMUZmZiBXG0D68deARNyCcT64tRgI6ZTJyj1n5M/YwerbR+ojXGyUBcYb1TV1FJL3VJH2el5LbG1m4jNf+l4UxbMZWdgvOMY4GVj/dhQ+2UiYbid0BJhq67KD1bIwsUg6emX1QK4OnRLQ/Yz9dNX7wcUZrSC0HT3Ymvf3FM2NLF+G9EIYfQpnzR/b7TU7btk/Qd1O7bcvRGE0ZKwAITRkpgG6vqGxa8NwgjCiAoW+MoYDc0yxcfHAwLq/UToWFIWgATUP7UFgPKWhQUgAfVlMU1LvZNz2fBDbxRZ6rO66P2DMFp0k6/EBiGMVuKsLvqYIIwW3eQrsUEIo5U4q4s+JgijRTf5Smxw/hh1InLjwl0+Tk88vINz29t6hlei0aAxfWyB+WMECKif++l/G7YfYTjGzEJJJ7j5r3iVFLd+Xj/94x5B35ehBaiDkfh+LkEPBLoX1B9ahlaAujxPC0AYzdOAUHHAAguMEa4ozf+Z662HYWEeGhpqCkDSu2XzMhVNGgSk9oA02FkLDzPX0VAGc83vOiVWkkhASEUua+MVDc96rqNloGDv8bYYQSIN9+Eqg3XvGoCXa2oqm1uZK1sFp+TFRfs/e3hXN7gS1/chICMOEtCpTjauwf5pdbixBqEf1LcAdTAS+YPuoKT5A/tHlEjby8M7Mrd9oKcpzEtLnPMftosaN6Q0NFU0NBQviEoIyyvYZZbiB/tJpIGOysJwl1sasnIaV8FcuSuyRjcjK5oHhocBOUdxTjoeiduOFlo6ehouzyJLqzGI8nCbG/zHLklfltLQUFGRFrtwfPdPx7XdIwNe2FjJnt18/lkuundMYJvU348tiFA+JqLsYBMFqkpS34BQjYAFqIPRlBD7NDe/vlcJrrU+zEtL6MifbAxab4u6+gdIpJ4if79rIn/9ofW0oauN2NsY7eKkLjkp97bkP5wPopvxuBaw7P+O0J92iewkdAG9HUDmBj4W+N+uA8ZOSfBmEmmgGVbgcHb7ejY19/Ts4uQE++sHdsjbF7c1kX3dMBJb/UR+x8Hr9gnJzdB8L6AFqIPRjCH2VIFYbHa6uwEXraB1Jrq+Ny/c1PA6p+6T2mFc/zCQOtJTHutx0gpYZaDr4VPFZWtLwk2VN21VfdFaggKN0jtRfB3bkOFxj3szp1V6ej2gLfq+o7glUG0rr51HRgN2AW0IVU0lbzRHjBBRPteFj62j+XPPoQMHDwFp/84df9L8tmmH4su2stIpGHXnZnkb8tHymCV3wvFTMRrtrkmIM2bdJuTkm9PUTepuyX3+5OIuNpO4hJruUWiuF9ICX9UbAf5Ggnsv3xUb7yde3uPJzz8ota4P2zAFo6a42AeK22kF7wKebCpGpBE8HJFqIbJX1vZlQQWqouClrexeEYtUBBwPPYlYSIioFRvN0Ru1JvgbXJE6qWRbQsJ/2F1RBjx1QWyOj7WR2U7DohfdUU3ed01a1EgkEp6ASnM5xaBoGegR7BFoqchwyiUNRSB7Lkq90E/qW+CreqPeqnhbRU1W7iseTQjCKBmk4b4+XFMTbnQU3KkpXZgodd1TBPO7JvDn7+ddq3KRwyTSyCCqsNxfnWMTx3X39Gww/BnCd+TbMfHIagkKC2rJ8jDZ5Xfgh6hvNqjGyRagEkb7OAWe1LaNxclgsDw8PEJ8/771rZfWZBQmhdgk+DsL87Pbaf/U921CI8FyyILCiBuG0bhu1FRvRMI2ZHre5aTZcMX3TQFyeBhVm+pmduzH9d8zKFEwIo30khBeN7j3/7Xmr/3cN7wQJOjR+uQZX5Bv1MHo7I/r/vfnnn1jcTIQKzOwnhJ/UlSYG/RpjAZ7OhBpAf7aHPTH6PeBQfY+DlGmG2/rcf0j02A0OtQLr8t+oLj74HG6fYcOcZ0TlrNy0Dm+nkN3HKP3w6Sh0gAN9lOHT7FrBJQOkYYhmewFIWdSpfPHCNNclBo7Hh5TPvi8CAwvQnWg6mtyMpKic2sIFNXzwc6O6rzowIQS1AA58B3Bd6CKwgNf+IwVDY4IymsDxNf7mj4uC/R8YKivLi/IPxi4+uUbf9/U57p7N4qbvMwvGyQPbIhEyn0mzSYppG7wqolAIkEUTZrwhfkyf4wWpl8z1Drc04YueZeO6MeAD6r7ERmwB9ybmcxck+GdYBHiML6nwv76eZGrN7yjmmaoBTpNbQssM4x669MLHHhl7GP8IrOysrIiXz6xunqc0yoqHQ4+5SYND3XDs++c4r58+6Z/EZraxoLqm8kCyw2jhsysu8xbN639jpx2sG27mdzWPbaekUio7jb/m9s2n1X19M6BHlzPNOnUP7/MMCIO9fZ21FaUl5aQUxW8so0wPDoe/4yMDne1VZY3tGCxfdCDa+rjMlONkID6TJaBzs/CAnMUUB8Yfg8dS8oCI1/V+c5lUZv8QmMqvFRl8d8GtPJa/MovppmF5wIvhQTUlyaCEEaQP6OCBSCMqGDEpekhFrNXEEYQRlSwAIQRFYw4u/sei6kuh8PyGqrHVSWX2LvSZzccsPPLHaNRdPcQCjvQPvXoGkb3AMLqKNwwenbzNIruHkR1TVfnWCuDnfNRQx8XGCmnCOLMrnuLzv0XdG+5Y1QW7mB4Zf+BfR8dh1n2iT5+9tbX2czpuqr/rJTL29s74u9xXeSeUudYE0f27Re74ZefNmepPAij2e7PP3f9/J8bgQLqW/YekLa57+Tl4uY9dng8dwkuhJWXZSTnR0ZUVM5GubwTS6hMCwp8Tq7K0fa+Ms+va/eyyUnecAYr93FxC4subK/BzNUrQBh9DovZ5lMHoxn11L7AG38uDmhH1Ppp/bGRU87NMRH9uYu/DCwIo9li8rnrFxgjIJhtzM9rgLc1Z6WWFZdWZ+cXxyRmxiRmxSQWF9R3gwqyn577z2CE6Rlqa6jMysoBq81LSEPUYoc7KPhOzs2MSYbFFKPqS4Id1RQFWK8+SKmJSMwmF0xd5hH3co+NQHXHPadOO1RVtBAmBdq4EXQNKGQ2ps55Sl1WnPsM03fff//dd2u/+w+DtENyFGIEQ5nyGTzNJzHCj3a0teY6CXIcoAWr3U6zVc+1Cl2FHwVqw492tLbmOgqw76f573ffA83+Svufy74Boe6Oagrn9pzWN5LesGk9UPC/f+/j0LUrGm7EET/Xn09D/9VyVwJGp39Yu27Lbrq9E4JihhP7dMPDo54CengARmanaDb/c1hezjrkbU5xSnJqsBEvF5u6il3S57TJP4URsjo/+ZHsMQETM5+YyJzi+FB/d62zByTcPDOaEAQikPvw8rFdbJdNn7vFFafnJEXHuUiecw1+4WihJrD/t8N0Ivbu8bD4nOJIL8tbEkK7We38G7rrPoP1VwNlhttsrD8rASOBqSG2l79LLLw0N5CC0d1TNIf4r3q7Z3RQtMlvkbXJX39mw/UJjNoKY/0sTvKJ26VHVXW3E4ioxtICf03GnZJGPnlZHW2FsU9uM+3YL+LgEtcIxuN9HZjGxIiK8sznNmriJw+Kyz+rLkUNoQjE9vLIAFPFA7RS1tno0jlH7l+Vv5WA0YwhNhDMkr3RzJLTpaiWwphHzo/v2zoBx6PnTsGllehB1NiszIwRujjx2S3BdQcENKxvWIFlre7c1hDcu26X5L34sLLixGfGQhsOXnpcllw3MOlWnhpiT1TA7Vii/mbSEKYgu+oxyq2tfWPGd5qTifk4cHBLntF5m47sbf0sRsDcqx79bsM/+44dPgaWJdfAfPyqa1pUVmakk/4JGoFb8aiCj8iAMPrczmu2+Qu8U/sSb/QZGdeZvVFzVtQj/ZM050zipoBCIGIpucaxHRBGs8VittcvZ4y6K1ICbkls3KHki8yYqgUL5l769R8eq9y4qt5JKwLkjWaLyeeuX84YEXDFCd4WJ9cfOmXvnNhYDS6CqE5Ctm9QWnVjNZhrfuLXfxgt7GPrwFwcsr3g6f249GhPazVFAUAmm/I7NSg2+hwon85f1hgRm2pL4l2vKvBclNW7YwBG6Jb3HJWV7wdl19QQgNxYZ9VLxzgktA3BXCszKy2O8+5Bgc73IIw+zcUsc+ePUUWUq6nBZU3Nl8gG9PCktYNAxDam+t97YqTq9CbbR5VX40Fg0QdtcvjbB6pGt++FvZu6Hk3ahmCaG6NszvKqmb3xz8V9XD+B2InGVrzUV758ZixC5+BlMo6KKsGQr+xoRyU9FJQRogTg5Nykt/73rK+pPnoBB9XWCURsa2laoLMSr75rNrYCDe3UZgnR3N5vBP1J/1Sav/qZ5b7hX5b37lefdap3AMIIApEKFoAwooIRqX5zL7sKvzJGs9RPH4IE1JeUbvp4Z76ygHrbLFNkZCQkWTzrncxKL/DNyCxTfHw8hNFKp2LW45vLcyMIo1mbeaUXgDBa6TO8KOODMFoUM6/0RiCMVvoML8r4IIwWxcwrvREIo5U+w4syvvljhGrIiX3rNCW5uDkFwsrgRQUpWXHhJS0k0ld9qdyi2HIVNzJ/jEAB9Z9/3biTgYmFlW08cZxhU/AOS3rp7+B+98brfBIJEoBZwZhRB6MZhbBWsOWgoU2wAITRBGNAH+dqgQXGCFeY+jzE434ArDbCRut+kPdjOztTOSApyMmZeifX1oEijYAmepCOuS6Y81HuYCe+NsJh5rLkgeMKg57bXRsvL2f75k1RB4lEIg7i0SkO942vglm66jpBmbi+nrkaCyo3kwWog5HIH3QHxE2tbR0+RNqP3Z1iqxtKA720jOW4dF9mWp6hPXD2rIy4pp6itrbmVbUrXOyX1F3dkxpQJNJQHy7/ufZ946vaYJqUC+g3WgrOXJY43N9THvHMUEpG/IKAora2trq2tsgpKVv7l6W47lZkpt99fRVVzasq2tpX5ZTl+ORUn6Vlt3YPzGQP6PycLEAdjM5NDbG5+dnMYzPSfCgYWZyh3bKHy9jiTTmGRBrtw7YFywnRX5YxeZ01RBodHW1raxsYGJvcSbld9ehMC8EZyw4Pdddm3T7FzXJeyuJNOoYEhvL5r13CoyLyaspi3mryHLny9GVRaw9Zbd1VZAfLDae4KiQkPjsnXGYqRB2MZgyxAWk9sjeyPkPLZTAungdoMHoYcF1Q0vIKaxvrG3F0aHhoAEgEzED14+unRBS1vMLgEyXSwSsnlm1F4ZB++lt+41PxePqR1sz72pIwBzXac/eSWyoxYLWYypZki3O0p/Td0rMA4KBENQssIYzKAzQML+0H0r69+3dt+W3tYYHPYlSPwOTaXtzMquWYkNI++clUd27WU40T//3lz39379oLVrt31+5/N//y37Xn70ZGNVDNglBFpLn9z5DJfygCPDealzdCdOJr3zhoqYkJS6ka3Hb08fHxdvexk+ffyy3xWYym+qrxWQVEbXVO/I/+8i0XWw+fiSm+uLkZCrPHDUWND0vAG1VWd0QZMNMwnlJ09spCAPM7cdmaCsrE3MZmbJmz7O8H5S3C3tVPjpv7imAvjERomG9GUdTWqWEvqI5pLbAEMCotb3ulSbdJ9EZAbglIAnGouzvrtgorv8xnvVFbV097hPXh37gvWj+MQhCAIRJJpO42RAeqo7Ik1lZ/B+0Fs8ykul4yYsSRkW4Eoqt37Ou0FoFOzsECSwAjeAM6y1J0y3rx269flwOxcHdHQ9yNv5j/3sv3eYxIg91tycb/sm3nlbr9OhMsPTAQ7aDn8expTklpZMCVDX/8KnU7NA+seKC7oyPawDCqpLRuDqaCisxsgSWAEXJoCFOTZcl95viBbbuAWPgoI4OmqQ7PXgG5L8Do/ehIb0d1hJmA1Klt28H4fP/+f/44b2n1pmpgAI+tzUywEBbgOgJWvH/fEZZ/rnhFlLRCv+CbGYm55MwfI0xLcXpaWFxSLWFwZFysk9KV/mY4rDAjLg/RWRb/Mja/FtVJloV9P0Ii1ObHpWTB4M39pPcjg4TapLiwIF8w+QcGphcXx4eBuXjCYGdZ0sxlyS1hqpPS35FLg/8mFBe34Emkj2v29Q/yTa9v6ZocRVE6C/2cswXmj9Gcm4YKrhwLQBitnLn8iiOBMPqKxl85TUMYrZy5/Ioj+aZrlikmJmbyU+yv2Hmo6aViAUhAfYUowUMC6tCLaahgga/8YprZukVIQH1pvvoIwogK9+LSnNrF7BWEEYQRFSwAYUQFIy7mfb8024IwgjCiggWWO0YjnbiB9s7e1o8OdF8rZqizewjVNdiBHZqlgDoVzLo0fcbC9Wq5Y1Qa/tBAds/e3R8dB5h2C7t4v/FxMnW4pvwijkBsn/TufQgUKltguWM0JqB+UMbOxtn7sYfP2OHl//hVUW5FeWZKQVRoal5RmLmqtWdkVf5H0mYQW1SywErAaEZ1R7KNOupq4614aTg1ndJimqh8Fy7cMrG8al7RGGHRVaWlSeFBgQ4qTOuPXtBxefg6LTIOFptcW9PWnAuryMstzysujYxLA4+8zNK2OuwHzlBtbVXFeZTcUlglunn83m1HlhQWULLSItNrCuoBuVlszxAWWZ+VBRvLis+MzERUtfVRJEc/VL68KPlsb1cCRiK7OXjsK0obez4E2ui+VuxwJyCgzk/37X+//+G7b9d8+9/vfvj+x59+/Inuj7+0PRNsxDmEJbmEpK6c/eGnn3786acfvt/Hrer2rGIsHsd0D1bHudteOUDJ5btkFBrbNQwInOOHOhIdDMSOffcDUBAou1dZzTWznDCK6exsD73Ox7Tze3LWL7TfHzV1iIPDx/lboR9WAkaAgPrvO3fSTQi06Y/vvh4WBgioXz/PKHfXS+fYRiZJYz+PhLKsvGpYPhxR9ESN48iuf/m4NL1f55Wl55WFP1S9clbqtPxYPF7zzsZIW/OspjslV1NR8ZqoZUJZd29nTbD5xRMiYrp6fmVZecDhfcvWO+BdamdTffojhcN/C2u724YC51OSYc7KN15klhSuUHrGvdRKwEhgy76Dsna2Ls+eePqOHd5BT+Lqyj4IqE+rfM3DI3DrTkRTM4GIIRCROR7mUtLcXKaeiEFkT5m/prKWsvWkXGVFXuEHAXB8a4m7JgfPJQVHj9KxRaqusLK8uqkOCMLu8tIcUrifEA5K2HZ2DVSl55W3YJogjGb729PZXD+XP1ubrKcG7NRmDLFnJVk8LgFb2tvcHHKbh/cc62VpE3urB+BhoijCysLMqmCWQWiqCzLiPsMP5j5w9HhVgK/tBHnCNtbBHolvPsAvqqVmav/o2dvIKmJ794qNh8ZdEZZAXAneiMoYFeObi901ORj3/r6TjoGN5fiHQ1D+hm36QDM2z/e6svSxQ/u2b974y2/chqGuweQAHNPcGG0rwC/IsHf77xu27WG9aJMRHFlV0oynyLGvWKQgjChTO+6NivHNJR5aHCLSqu7Paym5U1el5uxo16vHfvzxlx+++++3Zy7efJPQQ7kYHu6iJbj/xx9//OF/364RNwgqzMVTsqbWsyLOQBhRJngco7K+5s4oK142OYm79lmU3KmT3d2LbEEW5uRmh5lJMh4+J33vUS7lYlx3Qx0iPy0mykuTbeNWcfOokEpK1tR6VsSZVYDRaSOfoifim3cIXw98ltsDrOg4PLbcXZNDVFrN4zkYCwMnxzEqH27Gtb7S5xFnFxI1iM0iEMlPfaoyCtLCY7O6CKi8AM+o4vASsCosDptscZHlxGkFR4+MxqaMF3fDEDBEP1Bhc3lVoObeTQckKBH3xGBihX1eBRjxWwc1p3vLnOQRUBTRsLR64PXQMSoH9khxRoyIzThiaZy7o/YVqQtKig/szcEoW9fA9s7DV3m4HlSxs5HeHRWgKnsrK2srZc7TovrarpkZNbV1ydbiEia6hveBrNsGt+Q4GYSsHkTUFaEgbzSbrdcsr53/Tq0y+rG5oYS2djASMY2AelrAA3cT3ZCkrp6OdFcd+QssrCdYWC+cOWsXkuNvom5i+iA8clxAvTEt4MF9XXUXf4queWNu+AsLSbDICeBfOXMd/0osYQBLyPPVVZYBqho7NB6nR1cTsQQgxLYTPCtEOX+KV9joLSq/ZYUztAJ2ait/hpbF8rfcFzUIoyVhAQijJTENy8LlfKKTEEYQRlSwwFfGaA4C6rC8onHdbujDErEAJKA+y80ldPnSswAkoL705mQZ9mguz42gN4osw4le2C5DGC2sfVdJ7RBGq2SiF3aYEEYLa99VUjuE0SqZ6IUd5rLCiACvSQq0Vn8YXotHkd+vvbDGgWr/UgvMH6OO+uzoUPspycnV3j+7lLo6ioAokQEXraB1JroeVBf90lFC1y2wBeaPEVlAff3GXcdYWE+cHE+cfCeVnoWVArKKVEsQRlQzJZUrog5GM+qpUbe3EEbUtSf1aoMwop4tV3FNi4FRT1NhxmNpVQVpIGk/sA4o6ARlz8hmn0WuqqSIyHkoNlqCuFIHI5Hfd+0Xu3X3vt2HSNv5iX10VT26D1efHedlqHyJR15LU/O6svglcZErJvfTmnsGAWnYz+e6XFfkYBTVUFe9fv36NTlxId79tIKWUIi9xFCiDkbnfl6/aRfTcbaT7OPpjAD73bjMuuaSAEMjYYaDahFFXf0DJEzFqzuGF7l+lwupwPYPkwifz+Xet4/zSRSK0EUikRDRUVZyW2kFLSCMViRGM4bY7/PCTaWUmYUMk0nd5Cc98IgIM9Xftuj7IXEds82FQuwlRs94d6jjjWbEqDPy2TVFsVPaLjUkwgjYaGdGqqse6+aLtrkYRNMscyGMxudtiX1YYIzawry0lC5wGXggSL1kjCaiAP9kbq63jcLl4zOVhR4/LiWSFhijnsQAgytSJxVtikn4YXDcrUkJ9mpjYXLbJ3Pzfe0UBZgnlp2IIITRKsKIVJ1gp6TJwSPr197aOzpKGurJ83t2XXjDQTX3oq7WgU/mIpMCjESEmMfLkvoRURFWMsdoBa2gEHspMUQikRbYG5FIdVGWd2Xotwq4JDahOnvrkh5rKvCd2G6S0gaG3J/MbYf56F5lP/zHWXLZ3rLQ23f4aTbQCppDGK02jIYIdUUR968x/75/Hx3dnp1/0wvyanmnoPoGiYBM9idzR/pxsJRnuiLrft+9i45uzx5BcWG5K8qskDdaYgxRxRthW0oy0iPik+HTCagDAx4idNaWRD0P8n8OpNDE+IIWAolE0Vr/dC6+q6Uk4/nzQLBoVGJienZB/Kvk8s7BsX3f0jPo6uzR/Be11Wk3aNSTLABhNMkc0Je5WQDCaG52g0pNsgCE0SRzQF/mZgFIQH1udoNKTbLANz2zTDExMXkFRQPDK0R3fMUMBBJQp8JrWT7x4p9VkvWVX0wzyTd9wRdIQH1pcglhBHkjKlgAwogKRlyaHmIxewVhBGFEBQtAGH2ZEbGdlSVVmVnwSjSxc6ULgMzBjS13jEY6u/rbOvvacKOYD7M7isEPtXcS2rBDqJ7RORhlmiIfpCCAd/hPc8GKkP6Y87iWO0alYXZ66nxy8n7N9Z3DFCt0NjW8NWdjlr4R+Cyri3JyfnMPYfTJ+2S5YzStLF87otZP64+NnHJujoloCCPqWADCiAp2hLwRhBEaN9BQlpmclBwRTT5SIqLzYPCuRhwR293X0YrISCgqgDcXlVSkR2dFJ8KrsUMdBGJrU0NxDqVIqL3eJXEBDm3bgrb0uPT0ImRl2xCWQByruaihuKkXgLVnCNsCz8iozq7orOvorC5Ijo6j1BCdHpVQUtw62NpNxOJwCDg8NaG4pLWjICs/KTovGdbSQCCiCcT2Rnh+ThbYz9SI6IripuWhDLkqFrW2VmSY/g623WvXrl0HHut//oFByi7xXf0QGtAZtuKlYVeztb12VZZv7d6tO0y84F1VXX2ZL0z0eH74kVzkwIFtfx0/yyFrFu+v8semU3KPHRI7sYTRNmRzqPaWozImBkFVaAIRi8GiI3R5mVXFbkWEwN55yPy8lYbc4rq1P/9Bs+WcbkQzm2ZVnAAAEOtJREFUrHUE3ZQZ6aTH9hvXjfAXGjwnmdeeOCHiFoEfbe3qK3yhp8y382egUZqff5DUC8jLIqu2f9IZUMHdzq/+VYERqqs/NyM5B1YAK6yEFVZmZWa9ucXHdVxN6UFiJoCRGS8N7TZaUQnDF68K4XmlHY24kVQvVVVu9pN8t1wLK9MLK2HBFmqC5w5yXLuXXuMp98cxeQvj13AsobelMcdFaPPeP89LmkdnEoidqM4yN1EOpfvX/UprWzqyUuJz8svIjaZEBD7V4Ni5x+BuRGUxgJHKkf9s2vynir5HTERhQ0kNtqkTU+qrelFaX/l+SCTQyew3t4TOSFsY+BXWzG+OFwGylYAR36+b/2AUEhKVuCgmCR6i54WO7/7p+8OUEBuDH23u6EHhgGUISyBisLjmxDtSzBcltP1e15BVzw+fk33smthcB1wwiCWUecmzS/ErajypqiIQOwlEbKn/PQVpDg49m+z22Lusx08qy9smF2KQ9YXPr8gZKfGc0LNw9Crrb20p9lfcy6vtci8aicINNXf0YPBjTxxQTaUFLzSObRK45pGVXJkZ6aTN/L9jojejQkuxoLw6rhmR7MjDq2QU4JmFQo53kkdW7mZw5JJXZFsJGPFv/OsfTgV5VR11zevgoaooz3dk7Y9HKBiR6anODH3pZXf3nt1dK+u7BpdO7OAQVvN4Xkxe1Dg1ndJimsCHAj292NaQWzxcsrK2rgWUxwSUEPthPrYkRFuU4ZK4bmB4TWVdnJX4gzzfu3IPHB/eim5uqo82Y9h/5U6wXwEBSyB2YvClsW4eLmCj5sZGagK717EqO6XFFGdGOumfoBG4FY8q6ACb6Gquz38svfnAWRENldsTO3mQ74q9WzGlG0vVLa0EjKYIqE/e8ANBdENGQpqznqgE/xHGE+ysbGysjHRbfj3KNy1GuB5svqPiifNi0yrRlhCaq/30OM/JKLm4xeUXP1XXj8BkRnk4unpefZJUWeaj+LvQrSeZiU04BLwq9vUb6ysM/DxMTCfYWY8zMR3ateE7pivTYgSsrea8NFvpdtIfZGZnPfHhkL3t7VcIYfSpP/+Yyx/RZsEKJyz2X/DcqANeG3vnNM3G3/arqbvlVH4kWTzVG2G6sFE3+I/xcKm6+9VQ5o/ijRzK+5txSXYCzFfEb+u5przQFLbJQhWWhj+666CoaBsTY835h+a9V8UFTRmRjooHv9+0jsXKKbG+nkDEjsXyoNub6o1QdbUJ9/hpODQcU8ec4lJ1PBOMTzEOgbgKvBGipNLn6t8bxVUfJycg+wAZ64nK11MxwvVgi1xUTh7mmyig/gGj0WYcIcqCX/PaFVGzEAedh/GIbkRXXbiTl6nIFXO787QS3r7pLR1l74JuK9PSKpun1Bd0DgLR1acx6mltqHiq9vsf8rcjXpZ9mJ5p52wJnlwFGLVWVb+9wfTbQTmbhIg6YIY6OjoynXl59zKdm3ZRww9gOzIdZY6f5pQUt8urAR/nFAbpqPMcY+TQcygHfqdW8Ez56qWju86oyFlnlrYPoAi9RW+8bCRYDjLT7dCLfVvUhYUnvX2gtP831mth7bmtQKONZSlvjBl2/o9ZYdpFjdDX0pTvLrKZ66Tmdbf8QoorKgyLSc348HUJAkTu0irACItuKnpjKbSP/9JVKT1bC2vbu5aW9/R5j29nFZoWI8IIloDOCDbVuSjMcVJe19rW3NrW+qaY8PETLBSMGpPtjS4epjt0RtwPXdc5giUQkYWhPjfObttwSORJeUr9ABbVkPvG/jrnLjZpMw1joFFLM4Nbqhw71h1XnB4jIgqNy3tldktaSlpeW80aKGJhbaum+eBRcHoZhSoIo2lDpPnHRpXRTyxuSulcC26dIKCOaW6MeSgkoHE3LDAPB+yY0F2VwTfVpM6RQ1euM/wmbt4aUrfMbCKiapAI2PNrAjp2L4sz2yauJkDNmpRQV/PuA12dB/oargFkefXGtEAbfQ3Fmw/Tic1dYKm2svSXj9UEbrrBuirQwJlWeHGGm9LZM1zkRoWlZE3dniufARuq+fjicT7g8a73dC58CLF1nrokNI3nLtkPy90bTZx46PNXswCE0Vcz/ZJ1LXPoGIQRhBEVLABhRAUjzuH2XWFFvjJGg7NM8fHxkID6EhFNn9gNSEB92i0kdHI5WQASUF9Os7Vk+zqX50aQgPqSnc6v1TEIo69l+RXVLoTRiprOrzUYCKOvZfkV1S6E0Yqazq81mCWP0SAKX/POTs07uqCp/SMjEeDViQGWanZhNZCe+kemWeyv88eooz4r8p1P8JvS7v5hIqX7fYOEylQ315DYktK2AcrJOf3srUdn2grSqjuGl9R+VAGkRPORQb7e1/ljBAioT9FTQ+Fan9/YsvGMkrtXNnZeoxvHKCQxDV5dXlzXNkAaJb/iH8JoXpalZuHlg5H7XcNPSLNBuljUpGLWdUEYzdpkUIGpFlhUjHD5/j73NCSAJCch4RJCiZqH+7rK/dVvaYE5wD/SEhLGHonVtQQSCVjULAVpD508dnAf3Y6/Nu9hEpS4dFlCQuKei4ern7sB1wZuazenq9fJhZUUVG1DJkTcxEF8Z6KtpYHSWNVyyhIu6QVNPe0FISH3xpuTkJDQMLD0T+wkDRJJJFx+ko+Hg+XjiJp0b1VlLYl7LiEFDSTS5Kq0lNX907v6eqZadFWeWSSMiMP93SWhXtYGWtrqavr6utrXlM9cUrwX+LK0rZdEGurD5fvrPTTV0QeTrra28hmOi6rOj+PrOgCMrARpWc6dZmM6epBu27Ezyvrauvr6+p7+gU8D3bXY1u4RkNGRuWagoa+vo6Qgf+aMsO7riMrOLhJpuBvZnOxhKcUjIqMgqaGvr6+ueU3q2CWvyDwkvCAs1EGN3Jy+vr6GpJiMyBUZq9SinsE+QNj0MsdOrouGDpb6hsb6nv6xFQ3dyOY0b0td1avXtMGGriqek1X0TMlEds9vB7FCoKMORhf/OcKqH/g2OiF5LL15F2Iivul/HGMh9tBgd22G8TlRpQeWbyswJNJoP7b91ZXz57U0HBNqhkijo6Pt7e0DA2MzMpZ75LKMyevMLspObfrYSI3552104p7BxW09JNJAS26hk/DO9RK3Qworh/vRZeEhSvT/7Je+FVxcAfiNLkJ3pptxaG5pG7KnB4PBjM9hT3Hgi+ui2/7Q8KrvamsJ89I6z7CekfGcWwwaFG4n9aPLokPVTzMoPPvQ0OMLO5kNHGOrWsjip+N1rcoP1MGI79v//PfHtevW/UJJ69at+/H7NWv2kjF634FrCdTbwn3bKTaxCQ8kXDu+7JEOx3l5Lc83yDHDjw73D/RNzBVR1PIKg38aIwMuWkHrcbFHwHVZC9JyGbinZ2NqisNMr/z6B6dldmZD39TJfU8cGR7AEwhgi02JsU7XOMhVTRVSfl9THGavSsNvGY8o7QCv7yhFxJvy07DruaVlfaBxaiOr5Qx1MBLbxcJ1NymnqLJmLGXlp9sq0a7nImPUj0DDrC9s3rx981/bdtABaddOun83b/h5HauspVvxmK3LXqjqiUzMPSQwH4wacjOfGp6hOW0S31rTM/5A68O8YqqTwvTpmA6DLe7Y9tfmf2jJ8qNTMerOzXyqwfaftVv+2vHvTvD6nf/u+Ou3tf/5WehuZFT9hzpX7SfqYPSZ50ZjYTK9qJKphWfAxBSTVVbbhsLXhNiqKogKSqsaWjwOCAh48SzASVlgP4/kfDCCZ6e7T/ZV45MMBNH3NC5K8ooq33v67FlAQICnhamSKD2toGUmun4qRsADKp2Tvx6VNHN3BK7+kJLLkEj8eL2r98OiYDTUgi1zlvv9gPbDhKTWKbbGVXdE6TPRMHGruj6DNQIxzEgvCeFhwHVBaT4YtRTDXhgLb2JUDqgt7Zwcv9S+cFC+dPiAlIJ3Tl3v0BCJRJr4JHMqRn1AVaI0TDejOqpxU/oPnVgw5euPnmLjejre3T/ym6TqE690zPjdi0ciMRgMHlPeFqK1e5OwgT+suB+YE+Jgd1eGsfJxPpmJGD2zua2rcPGE2r2CgZ4h8DH2xLknP36cGBthkVVxdrrbNzEoBIeXosGKh0aG0XWlLdh0Z4srsmy8Fq+6SH3gctffEBluKT0mzT4VIxJQ1Y1dtCK30xLgBLAqEnFkpKuuDkMY+7rKWVoUb0QiDXa3pd6mO7X7rPSt4FSK9Faqo3NEeGRRHwKTbX3pr42XTV6+LATy0C01MTf+Yfl7H/9EjMJ9H1lekaHn4n9U2tDW1dPT19+WnvrRsjUJI1JnWVSQEu2f68VNgjPBiuuaES91hFyiQ1wcdAXOHT+nE9HT3Am0WPL61m3+zWPS7NNgRK5q87aNUrdeZYFV9XS2tETo34wqKa1b5QSBw18kjN4TR/rQ9fme2hrCDNvAIJWOjm7bBYt74RUDxOEhLBx2j+c0y94t/wB5h+gPqZte59krcGUSRrCiAn9/vTNrN/+7Y+cuOjpFPTNrt09iNDrYi67JfKGyk/PY32DFO3Ye2LdBwjcir64hzuGhzMENf9IBNdHRCVwWlr2iMibNPh1Go4O9XfWwFKvz5zgOgVXR7TrA8Kfc04iS1snr5Splav4YYZFlWZmRial1vYMjFFV00sBwP6LozetkWF09Gog9yKkfWZSf/HZigFoGBqjvRwZ761ITI0PIWcGvXmWVlSVHpsPy65F4wiC6KjU0rwaJw+ORyLJkSvHkrPySmrqixNDUCjRFT32EMIiuSA1NLKrrJDc7OtzfUfQmNoxSKPh1QBYCiRsYQtfXwd5RzgbEJCdnwihV4ZH1+bD0xKK6XtKHAZFIH3UygFIVZXCr+uf8MVrV5oMGT7YAhBFEAhUsAGFEBSNCVUAYQQxQwQKzFlCPjo6G/rsjFQy/sqqABNRXiBI8JKAOvZiGChb4yi+mma1zhQTUl+aLkSCMqHAvLs2pXcxeQRhBGFHBAhBGVDDiYt73S7MtCCMIIypYYLljNIzC9CI7CMiukckC6oNt7d0t6IGO7lEsYRSDB742teEaJxzNY7lUMOLS9BCL2avljlHJW1tdtTPScr5NkwXU35ixMErqB3hndmEJnU0NwFe2Hbu2Tzg4x3IhjKhggeWO0RcIYRHG5NUY2ZXkbnl4PQvw8vTyuiHAxs3Hre3mloZZzLt2pba1ijDiHBd7xBGwJS+unz90gFdJyqt6pU7tYo5rVWJEGMIS6p9rc3Kdk+R9mLuY5l6pba1KjPCDaGy5tzonl6CsoFPBSp3axRzXasSosxNd5isvwHCcS8npcVH/Ypp7pba1EjDi+x/t70cFzgmLiVy4DB7nBc6x0P34/aGxYGgsxN77L+NRThGRC5eFL0jyimrr3n8emA4vB7XPVursLtq4VgJGZzdt+4dbWUldV1NHHzzUVZTOHv0goD6G0cH9p7kuayhKiZze//OP26QNA4vzIYaopBu5EjD6jIA6ZcNP3qk1lKa9MmY6smX/eeOXzwtw7VSy46Ld9//f4LRoxCWjt58/P354bEqAnI5ZQnL/gfPv/wzOiBlarhqByej367evHxxoT7I1tvavrNr8fGhF2OB07QhMRn/ffvr59sXtjS3RoS5e9kkz19/7++wjFSYEBmcE08dVIzIZgdtDD04t784McDB2C6lds/H6l/uQC6xHm0pkhcBQT0bXd8xsqYotKlqDfIH620cPd/YF+ue2blpx+sPbz2hceMHz6tiaSY1Rfu5+VVNPvrs22msjKwFBSruhnozgaWKUMZAhMJqMBjL06dNwoYMtA5uMAOkpgatB7Du5AAAAAElFTkSuQmCC;" vertex="1" parent="1">
          <mxGeometry x="440" y="170" width="194" height="351" as="geometry" />
        </mxCell>
        <mxCell id="wYbG2ShE4yD7E5KdKAoz-3" value="" style="shape=image;verticalLabelPosition=bottom;labelBackgroundColor=default;verticalAlign=top;aspect=fixed;imageAspect=0;image=data:image/png,iVBORw0KGgoAAAANSUhEUgAAAMUAAACMCAIAAABDDfoDAAAgAElEQVR4Ae2dB1gT2bfA3/u/99+17H/fNtR1V9dVYVn7uhYUFEQEkSKoIGgo0kR6CSAiokhRERXEhiCK0hRRpEuJVEEIobeEDiGQhFQSWpj3TSAhiKCuiYQ497vfx0zOLWfO+c29Zy7J3P8ikahdXT3R0dH19fVkMrlXACk1NRWFQgFQ+gIs8F+8PFEoFLIAUmpqagkSxRwcgbJQWWBomP+AT+Cpv7+f/z0AQGZmZkFRKZHGgrJQWYAxMMJ3d0M8fbmUQzx9ub4XxMAG8QTxxE8LQDzx05qCuONnV5sQTywiEV9b0fSmuKOZxsJDAf6nWUCUeBomUAa6CfROPL2zh53xjM7eIQL1fSMQ+tk1c9fDytef01jYT7Pm7BpLBKGtKPHUW5kbfUnjz41r/vxDkp3lDkt7F9R3Md9jOIgn/t1FIsMTsSTlro/ZwW2yx05evXM1+P7N4BueF68es4t800F7z6gD8QTx9PZ6Jg4ZdQ6msXmbtEteYSezCzQQDd2ASY7Jq8GPnk4960E8QTy9zRPIhNKuTarWiaxmwjvQ6WxrLn+Tk/SSmwsRRY21BFYPlUWcyFNXayPyTSG7ZF7Sy9ryNmrnqLkpA8SOxoKCorFG0vOT8ptrsX3d/HPGe+bl2dCRqMx36PhAi73yfytbxPU1dA/jJ8XgJbGerspz5sydO5a/XrZazuESsr+FNEwY52m4k8wsi3A0VVr+9dy5c+b88PW/j8CjSl6Thwi0YUJPT1ec/d4tK7/6mt3IfxZ8tdHj6ks0eja4+bORKio8kdAv/M10JL9ZvEbWKqarqPXtIaq+rr4gJ6uguHI0p97zcT+iJrHV71ETGcPh6WkPoeThCW09uKnv4xfFlbk5eU/d1BX1zjs/RNX3tDbmBhqt/03D5o5fHNjIK0TRdVPnR/nlpRBPPBYQFZ5o9Iay+NBTGtu/misudVBJE6atY2N7NiK+mYWlgGx1ERkdPXTubdpVlRzlYbx2wVGfAnx51eh6gXdEM+LSHiVj14jg/O4OGotA7G3LcD+qoG9w8nFyPaYh/byS2DqjCxkv0GCDPb3M2tziqnZCK481ue1/sQciwxOLSMNVv0m6bWFrbWFrbqGjvHnr3yvUdTyzc7CMDrbLO1owhc+u+Ptf8b54xdvD1uyAsqSY6qn0bmQZmyeFk2ElN7UXrlU5YG3uwS7je8HbRXvHinXKhlduv2nBFAXqLFyjzJYGhj1PqmV1kd8eBb9YjLgXLko88Xq3JiXQUW/5+sULDS6W4Ctx+NqKiriQANdDK6Vktm3eJi21ed2q5ZKLxFRPcnmStQ9NPycntlh8+drVm6Wlto1nmFvIAyShrSXFT1VZ7e8/ly/6fqnk9kOX8h4n8UTr0CjFtoCo8sQituYnBZhI/fALLLQ9Nz/u2vG94j+sW6wemtpCbaeNSuEyYqqnx3lyCM3w2SUmaxmQnTop/OLef0T0iyBrtdVz5sz5+tt//beOU3Tpm0mx/3jhLw8y0ebJXlpMwTkZV/Lylpuu4QY5z5u1xCbyEPhPOpC2iTwpuT2oDjVctPiYe2JMJe9QN/GYRG7CNJfkpCaHWEn/8IvOueTYmokFvjyGeO8fUeGpKu1BXNL5FxjutdVm3fa32LNii/uDil50aYSv0QEZGTPvYlZrL+h+UGq4eSnvfKfsF9lSHKCxcLestcMdJIqDBepFWk4eEtXZ0pr36Hx8c1EzA+yirao2yurPH9focsJzbr9f+IGo8FT7xO+c8579DmCszc4OlmZ6BqZm1/OROGZXZ3m8v5WxksxO0yvu3mABX3czMw2Z5WKqrtz5Tvl6LL43L8b91JEjMCM7S047ltaXrj/OqehqwCB8dHTdHFwugO27O5022PW3uvfFBAyqGxqfxi0gKjzRalJunrPcLiPFzeoOx6/k1NBYPeyRpuXNi0eeR7hSPRsHF88bZvucbxX2VtflRF684+YQm0Vj4Wgs9MsgH5sD3JJSNiHX01uJNDAev6y2T53TvpyShuvz7pL2cVN+4SPT6OWLDE+QX4XCAhBPQuEGkRnbIJ4gnvhpAYgnflpTZIaZf3whAuepr69vQAApPT29qBhFYbCgLFQW6B8U8O858Xg8VgApKSkJen8B33+JK5wNTvh9MIPBGBJASk9Ph3gSTvfzXasJPAnu/QUQT3z3nHA2CPEknH6ZrVpBPM1Wzwmn3hBPwumX2aoVxNNs9Zxw6g3xJJx+ma1azRRPTHJnxeuIKzcCroylkKjgnDZ6vwBewTeVa+iYSkRe6vOyNgD4jL1OpY2IfD4jPA1Qu1Cvwj2ObxPfLrN9+44dO3ZIbVbWkXJOaiUxP59rCbmJ14K9nSIKKW2o1xVNXRTqkIg4dQYvYyZ4GunID7Yy3rZmsea9Ajy9D7z63ubKgrtu96rJo6ef0SD0Rny+j9oCeac7ua+Jn7FfEe1qJnjqSXvopK6yVcnsCambwWKBlh0e7Gf0dpP6WaOnn9HYEE98NfZM8ISND7FWUtyq5pwJkKZ4oXB/d31D3GkLUwMYmE57+L+sBoBBzpVPlMJgth5Wj0p7W15G+gSEhCOQJE45EhIRHhLgE4nA9ffjEGxp9LOspzdhRkawm0+znkWHX3TS0TiktOHXOYtWbVVU0oLBYMcNDE6fPm1wPOjp01IcpyHwLw2NyIoKsPBHNFAF8xpk3s5m7fFM8EQpfOapc3DDakWH4LgKOp494fEakImtLHkWeNLimLGdrZW9/QmdY0YGLvDnla2MwUEAAKXRPvADsnsMLI2s7O3tDWHHLXYZhqORAXbyB02sQ+KxnMZAcE0OyjsFo+l0dLCT/C6FHbrHXC742js72j9KTb91wVpfbslGlcPSv81bsklBW+eEvb39Kbidj7/d1tX74LYhRTxA4SqjPDyPaMh5vK4jDwxweoD+vmWBmeAJIFQnXjij/NvSb3/aezruXnx2dnZhSXljFxMYBr9AQWtOvn7txNEtdgllJAYTAChlkQ/PHP1d7kJyG4U0TGtOvnxRW3rpFrvgMlInEwCAdkwFIggehUYFWr2Hp83rflE95BCHBAAQCJC2UwbyDjH5Poq88dMAFUBeNVXU03MNTyFwyKFlRZ4x1lM0vYoEqJzP3jIldAoAwIzwBAAApjLJy2jevJ/mzZs3b87X//5tjaz9jdpB8uDIyEjxCw9nW1m7oJq+HkofmDoQGdft5RaoeOXiG2nFLzyO6qxR0AhtwdN5nseG6EBzsNN7eJo8er2LJ2AIAFoSXBRMTKwd4zrYXxEaGS4MOONySsEloQUAxVCaygIzxdNAP62ns6amrqampubJTUvN3fPXSG7ze95NJfQkhdnt3zT/x59Xgu9BBJPEst9+/vHHH5cbxWAra5LC7IwP7bS6UjVI5f06GD95GgGAwcYoKysT031n0jqA4WGgI9Nzv/lxO6uoxkEA4P+X0KZyziz8fKZ44jUVsb3g/i0jlXVi0q7p3Q118SHWR3avUjG++jDkwUNuinr8NK+J0dvECYmaAd7hCeAnT6BujPbYYGe7Y4cuJeAYDFzCpUPH7JyDY9sZvHpDx5MtIAw8AQDxde4dK9mfNji8wNW0ZEY6GR7dYXypDKByn+i4ilNAqZaU/slXFHI/e6lhVMRvngCgLe+m28kDuvpRZWVR+roHTrrdzGvjqgEdTGGBmeCJ1tnS0VHVSeOqxGhOTrhovHWl4Y1SYjuzLuOyiZX0Lv2bTY20oVGiBul0YlMTcWhoEAClRhu3ybrlN5D72VIGndLTWI6htd0/paBqYBIQXj8AjAwDzK7GrGvuBw8qjz/fvSt+UnB6jPTfv3CLxeW0zI4JoVF7dsA1B/nFau7uaovlHa4FZLdzFYYOprLATPBUetPT/7LqlVw6J5XHursf+es3rbDXBHB9HJPs7aUusXipYyims5ldprnozTNn11QSuWdUqib+8xI7jrS8MCPCZv+NMnzSlYMyB5Wt7GMwdHIPvfq2k+L6Zf9etnZ6ntQ84rBR8N8XKhkF3chqp9PB32QMjYyAQVJvUd5ds63/+uqrf201u5tX1DuVDaHPxy0wEzwxcx97Gu9duEySk5Zv0lCxC0G0k2jD4Pr4AA3fVvA4xm7nmg2rVrLLrJTev9H5RROJMcyW1qXf9df84c+14mzp8t+llCVtU9pIRGLpvWvmapt+XSn5x3rJFaZn/JxOwHTV3sNTQHpfe9sjM9WdGxf9Ji4pKb91p9+LbioBXLTvqs8MgG/4z382wAMy67s+338Wx90z645mgieA2F6el8mNtB8+fBiXmY5sp/E8Og3RenrKk59ER4yVikt5WtrFGBhzKbO3vSnv4eMoThNcKaMdXZz5Avw46uHDvPKGitLi19npSDR1aIiKRqZnvy5Gj4fUYGFUPqK+a3hguKsUkRLHbi7u8dPSJsYAuLAFtFanXrBbtkDJPTsTQ4NWnT4E7hnh6UMUm/kyTCwi9ZbV7jUHr+XiW8aDvZlXTJg1gHiayjvshXjj/SsNn5QS+9jD1VQloc/HLQDxNG6LiUelyd5Ghpv2aYW1ECasdE0sBZ1NtADE00R7jJ8xafjOzqbWdtLgMAtaEh+3y/RHE3gik8m9AkipqanQ7zmnd4PISCfwRBFMSk1NLUaihGqreEgZ5uDIkABWQCbwJLjfmxcUlf7j18pAFQVkAYG/rwfiSUCeE85mIZ6g94nx0wIQT/y0pnCOGZ9TK4gniCd+WgDiiZ/W/JwjgXD2JUo8DRPIAzg8tb2b2o5j5x56B3GQAO3Xw9k75DMgKEo89VbkRl1Ul9ywSlJcgp1ltbZ5FdRjmZ/BjlAXoxYQGZ6Ixcl3vEw0t8oZnwoMCQx9eCf0lpdfgJFdxJsOGvYz3qDvAQtXX5QY4Wbi9whFrn/XvtnvqS48FzKFJqLCE64k6ixMY/N2mZMFhZ3MLvBqaWh0Y8rjghr86KlwxEm8+6ThhEOlKcj4Z2SLCk/gntJKuzapWieymiff98SemvLa/AJ0DZ7VMxpOkUjNaHR2Rnl5Z39nD1uaV1ne2JSdkZOcgkhIKUYUtTfRWOBOeaN1p5KynYHD9dQhESkvEQkpiISsspyKnk4ai8CtW1BT0Yktzsh9mYJIeHzjoo3O2u+26fk/v/tsYkd89es/o+HTa4kKT5gXgRbK8n8rn4il1uGG8W/F4CBtxqqyjlerWG0k9qjAO06A+wcb7duo4XL7nPwvPy+eP3/u15s3770Sg+/voA4TwLpTS2ksPJlZlfMkUPvrn3+aP3/+/LnLlGWtHhcQB3FUFnG0rswRt4Qw06VLxOd/M3/+3Dlf//t//vt/v5o7fx54KiOjeTuBxhKiGfnTsBYVnkiYF/7Hdf745udVMhbRXUVvbdj6fp5UVon9tVLrxqNXqJzS7BB3E20p6TVG0VnttA6w7tRSGqssKdDbVPZPFc9QBPJVaXbIueM6ysqbvPLrsEw2Tyqr5kku/8vtWkZJRmlNESIq2M3o7x/kTtzLj8uvKSptKq8ngnupf5oXP31c4VcLosITjd5Q/uKem+b2r+aKb9Xcs//IIW0rG49Hz5tZWMroODH9+KS7c52ucXhDZc9AN43ekH7n8rG93/1x3L+QUF317Jr51FICJsHv+HFZOfUrDWVdnLqmh36SuvK0idwCsqi7U1LLKKCkEMcEByHecRGKnz7sKzUz9f2C7uo3yXes7G2t7C2sjuzbIrVphdrhs6+ysQz2GDM9TxOldS+fepnw7N45tbQpK8RB//A2/dM5rBYieyYF61qtXGjkV4Kvqpl2noV4Em6eeB+XalKuww1Wrv9lof7FYnxl9bR+BeOnicTwjiKCk0I8zR6eRmcWk20//AoLbc8t+Fhi8pKuOW4XU3fP6C59B0880or4gBPGajvt/Su4kf6oVPX02M7EU5MK8TTbeHKQEVNwScaVlH4kT5WJ0e7HFy2yCaom1tZPqssr7S146HIUtuWAQxpnnQKUwsTEVF0gnj4Ml/eWmon4qTL1/tPEc/EY7nNKbdatyycUlm85E15JQne9uueop7HhoOFjXCN+iNheHH/d8fDfm5aKqZ58h9cxiNuutnvUN5mn5rb3Yd9+NpwopeGz7jjYKG/ZZJOR18HA0ojFMV7OWvI/aQQl1lDaaiexSKzIenBK47s/NQLKshoYXG1F5kBUnu/qnlw+57xH3dbTx28021mYwQzNzG8UIHHMLlprQfQlDx0NGc1Tbmcvep4862yur7FrB0/Erb19uex+uJ+7l5+nj+1R3SNq2h4BWfh24hD7mX9qKY3VUPws1BO2a8chizPe7j7uZnowdW1riyf1TfgBdt2J8x2tuzo7PFBt8yoVOxO4t6dP+J0oZAVnE3YRoEpUeKLVpNzytJLZuZ2bNeDmV3NquK7CVubGXNSX2bkTLOB46lJwWMxNc9WTt4t6qyufXTNXX/d/v67YtFNKmt2CoaddZM2Yd8HxaWopuG5Eqi6MDzLcqSDHrsvbb0tO1KWLcMsbkWhWJ5nzuNCORsefV1VWZKtqcszxKYLGwkHrT1NPezMx332KP96e0TiOH21zeumn9CuKdUVmfJoIwUe5anpippd+VEdfQGGIp3etnvM6HuKJ1xrvO4Z4YhE7K15GRgddi09rY3VRJo1z00vfZ18RCLE/6hIEzlNfX1+/AFJ6enpRMUqotoqHlKEwWP28L0ieOsT+KMmEeJxAIGAFkJKSkqD3F3yUV2Zv4Qk8MRiMIQGk9PR0iKfZi8hHaT6BJ8H93hzi6aO8MnsLQzzNXt8Jo+YQT8LoldmrE8TT7PWdMGoO8SSMXpm9OkE8zV7fCaPmM8ATDvUs6eHlqdO92KwKDF0YjfWZdGJiO8pfx97OrqP1T9q79DOp8I+7mQGe6p+5epnJsdNOObn14j9++9MPvyxZs230Izk5fafApDxwv4tZmMB9iLCYsqo6NBb/gRsqDOCx6LqqMgx2bHtSAKBUVySEww/eRhBos27PmBngiQeTfgDIDFLbul/J2ml8118e+aw7fOe2adNfBXeT47d29Ju+lrBKIZ746hmIJxKJ2tXVEx0dXV9f/9nXx6cen/q7qfXP/Y6fj8hMib4f5KtrbWoRkdvbh0rzCzqly5Mcfe9nlZAAgNUP9GRGeF0N9r0cHOzLKcCRjjLTlBbLW9kx+H5WA4nbUWxEcJCvI1jTQFc3KBbZ2sVDWhO3X5iR7qnYzLpucEMXbt0xJXV1D2vpqm2RXLhkhcSWHRrjTaGQsbFcpcAuLJ28IjJ7BvtZVWmexw5LrFiyUHKLmq7WYV1dXd+g+9EpmXE+FhGve/soANDFW3dUZ+DDrpdH/892KKzjE70Rn++ltmD13kO2Vs7nz8O9zngmIimMkrTAUF9LOCeZa6jowlxd75e2DtGHwf2odylsUj1k6WIKhzvA4eNS1uAwufyVv4nFUe3dsLHKMN1TVyKzGrgd6Vibnzx3Bm5rY2GguEJG1y0spgJLB4Dhflpr9q0L9oeNjY+Yw21tbI4pymocv56QjukFuHXHlITDHWzgpoqbl0qs3aikYQ6Hw13h8Mi0aiwKGR93FTwfTZZHtPU0DfW8M1GUqvRAG+ONayWWblY0hds4wOHwuxFRoVF3zisudo7pJFWUxj3wMTOGaZjCHRzgphoqh2CuN++X4jj7205xvQAggFeLfxCTwsyTp9qCX1ZJmDnfLajnXAuBQKBQKJwzgJB13lVTa+e+y0k0OrMp2El+87q/9PQD8rrYBp0s1TL0vVsxVrv+2bPCgoJ6kAl2RwqnvZ5XEwAmoxeVcGLd31J6Jtcy6gcGGMTqJwaLdmud9IjlkWq4OkeWUbl1uUpOMd9RKBQCYfwRg1IW9cj+wNKfLUMae7Htk3ZEBne/Pa+4GB7T2RztqaR/QEv7Ul4XuC12V94lba0D+kqeWaQhOgu8f6a4XibAnKEtQoSZJx+1BfJOd3JfE7n8gAesof5+BnUsNUQHmRtqTrdjosnBUWljiLO85jHzoOgGKo1GYw6OjG3KAjIxsaN+MoBw2b9VSdk6JL4TR2oPd1wsdvxsQgKarcaY1PSoR/wb2qS6U/AEAMAIa2iQSaXR2Iq3ZqYF2MkuUPPJxzeip+LJJqY99rSqlBns3A0kxwLIG+dgZlKqgRmDo/fP5B1s2dc7c6H97OOpJSsw0FhiLC1fvPC7P/56L09NTDoz9aqK9PbvFi5eLrF+iww8vrtudLyYzNMQDWi4YSunaWgdEt/YjC/yO7hQ2vFGdl4P26ljUm1ju7Ck5o/giVCXFQ+X2LKerfiKpUsWLluwQO3cNDwttIwpuma8e7+J5e1Y7kbYbbG3LU3273YNa6HTMcFO8hBPnDtt9Gafcr1gspvHIm4nA82jh00dAyIjH0VGRt50NFNS2fNenpqH6UO4huy01LueHia7xL+au3KbhrKmb1AssmlyR7xjDHpaYqaXYjmXSirJuu9reeiI0gFT39CwsMjISFCNAxsWqHlNw9MCi5h8P4OpiEHT6WiIJ46FOX+nfr6b7OZBKlB2yWiH4jblk2cTqogAwAIAgLt484H27Wtpev34qoONCxg1b9e2vZvQOImYsY5ghs6Rmfh2YuV1g0VrbPwzsjrZWo9J1Q5bh8R/IE8Nj66aaq1fc9ToXiGGPgAuc4IRkpP89PPdIquYyrvWSoqmplcfNXAMBjZ1dNf77x9gprbsmz3z3QAZKPA4vP2wjnNEFnXMvtTyW34GB5Tfa9/GIToeg+kkYimDYM1BGlATYCG7Uc3Q927hWzwNDNEwmCCYiryjZWB2PUCi4BIv/PXTEft7D4opA8DwML2z84GegqyWtkdsXutbdQFguA/oeui+R9XA5NqDOs4CecVdX0N9aSXPJ71AH3gTAIympBdesM0L1Lzz8Y2tqeEORodkzH2RTMoAO4oei8ftYjoRlw1kjHXsPZLxTGBkBGDikz3sdQ5sOuyX2E5nQPMd5y7j/v2Y8WmYDrTcd9u7XvPIqcvZYxur5QeoH9m0bO17eaoj0zNdnW/G38xoAWv2tFESbFWlVdUcHyRhRpmQtQtIYwsxbfUhtksWq1qEPngD/rejn4zNdhffoWxkeSOjntKFbUoPVP31L30v7xQMe71gYiwP9ANAdvAhmQPKFjZR9RQKlUJh9Le/uOegqrJNxTaB0tYD9l/+9LS78sLvR+MnOirFy1Bvg7xyYEUTtpdC6WNgc7M56wVpwVrHDu1TsIuqoPT2Uiqi7BT2HTqmFYzirBdA8ROXJfDgY3gaYQGD5Or7Fif2rV6wdCwcP2ppqKmgq/ZenpoYdGrCVZ19u5euAGuKr5T49fu98PCHb8g0ciM+/5zaggXLFi5hC1esXC35/YEr4dmNZCa4iDPC6u/DZ4fZKKmtX7pcYuVKyVULt9pfTEQ10gffxdMIAPSR0nxO6sh8v3i5hMR6CQl44MuSnJdX/fXWfv+rxEpxsH/Vwxr6hmbbR8cnOpOOjIhwVJy/8PcVoNjY8azPbQ5PrSRUSoC5wd+Lf5cQF5f4ffHfBuYBKSgSE+IJNQGksZNhAADD5BxECaqDMaHAEK0fX50dl4nC9PD+Y5XRgSpBPI/kJERRUQ6iKDcThaEODVExqMzcopLG8ZYYHY0lbCl9eGiEHY9zKkZGRiIqOzqoAGdNcsMBEw/Pu2zx46eRBc0dJO4W1CMAQO9AZY51G/0kMrUS00MDJ7MplASIDZUFqaNtRUYWVHaQCPhGTFEit/NUBCK/CJUZl12N76cNAQC1o6MSwZEiCkrK6zFViGeoVsYgE2DgG0vGqyYWlTTiQUuNDAH0aa4XGPoi158mIDQzJ5MD/5nRQ0R6ndl4XAiMCPHEVyd88Tz1NRMK/Q+vUHUPe82Ov/lq3S+vsS+eJ9bgMJPY2diBJzPY8feXhwBfr3gCTyQSqVcAKSUlBfo9J1+9JryNTeBpbFWH339SU1OLkShoi3phs8CQAL7UMoEnwX2frqCo9KNeJQMV/gwWEPj7eiCePoMXhacLiKdJLxCDXhH2CRaAeIJ44qcFIJ74aU3hmXdmShOIJ8HwRB0k4jtK8huQVT2tnzB9zBQW/7hfEeGph0jrxJFasFNlSge+v/utTTsF6mYSlVh1x0rW3sY1PlOgHQlZ4yLCU16ImaWa+PIVU2XFo6dj4poEMxS906MQT/xbH52B9afGsldpzyNDwiJDwh6EhLkd2bByw1olJZsb7E8iQ8ISXuSiq/AQTwK3gIiMTzzzPYNIS7+kvEVZwcoquoPnc4GbckJf0Pg0q8cnHl9OzROZjutoynlZUtLQgkRVZifmJqY31BIH0PWoguyM54ncXJCNam8gsgjk/s4G1CtERUFVN09MzWhuqCspROY09OHIw0Qaq7uzvQpZwKleOlYY4kn0ecJhGtK9lcR2ml28ZHfCYN+3q5eKnw7F9MYGaMGkv/322/8bzd/MW6NgdjO0gonFdZfd0pBbpXXIJe4ld3coamtygJWFmoLKrWY0bpBA6qtOvXXRcP037OrfzFPWOhmbjO/HQzx9GTydVRJbsERMU9flUWxZI7Kyu5U0hEKVFhYWFZfVjebka+aGyrq79cNTe8ntb66YSv+lAvMJKOJMl00pN21MNHdZeb3pb+0drk/wdbGyVLYKiS+rKyyrS75mbWxko3EuvZJE7YGe7/iE1AzE4x8034Hj03klsfWqBrduZrU3cp7LOvH0LiKT20Jn0V1PGGy3/JngxoEOLPqBwy5NveP6YejRAo1pF+B2tsoOsSW4/m5qxSMLU2tT37NJbW00FoHGAuuaGivtv/AITe0sh9YL+AOUMPPkrSS2yyogJ7WVM96wqWqsyE15ePGcFzu7GKhLyUvLOl6tAreYroywMoEZ7LSJL6cN9tCaE9wPGx0/ZRbRSqTQiZ2xpxUUlaUO6brw1t2yZfsxjxxqSynE05fGE7iK3V6S9zrU2+74/rWbZXfJyO7aIbVW/BCzoBMAAAJYSURBVJd1f3F4IqIenDc02qlwNqyV1tEa46ogDzP0u4ViEccipM2rf5FcJbVrh+x4PmB66ko2tQ3iiT84AbNnfCJRiBW3Tuxct2SZ2h7nxLLRzWHf3vAOGeOubySlZh7d3RBtq7jVTPt0wisai0imEqvvWstqwI7fCa+fMNqBMyMUj/MJJgCYRTwReolpp1S36KlahT9poXazY6BJm0gzqhIDfB2OLrWKDbdatuXoKYeHlVgai0jtI5JSvPduN9D19M+HeBqzwJe0njm2XsATP/WSiUX+BtKyakbX7laOWaQ0yubE7k2buPMdjdVVnRJ96Zj479Jbf/9D/dyTcBSFHZsPEmldsc57dHaoajik5HP2lK7NLX71PCWfRMVBz3d8GqJmz3xHYRLbXofYqmqra6qcGIupvU8e3r9NRoqHJ2J37atHbhqL5s1dpO34CFnUPT4aVWaEBtobwQ4aGXpddGeH8zYOF0/7x5aQqN0QTyLBE5NIK3nodAJuH+if3sNdBQAP8B3NRY8c1O39n5QXYMeZQKffumCvzQ2obbz94PZ+zta3ojDcTe7JNYUvbpipKpndjyzsaOEsNIw23lKcGOmtz62+w9jLIaqWSO4jYhL8rW9cvZP3ZmL5CSqJnEj05rtxUETbc8J5dRBPEH/8tADEEz+tKZxjxufUCuIJ4omfFhA4T319ff0CSOnp6UXFKCpjBMpCZYF+Abwkamy94OnTp2g0mkAgYAWQ0tLSKio4r5Hn03Mp1IxwWgDkiUSiUijUwcHB4eHhIQGk0WFPOK8f0oq/Fvh/zff2wLspusEAAAAASUVORK5CYII=;" vertex="1" parent="1">
          <mxGeometry x="740" y="170" width="197" height="140" as="geometry" />
        </mxCell>
        <mxCell id="wYbG2ShE4yD7E5KdKAoz-32" value="&lt;b&gt;&lt;font style=&quot;font-size: 18px;&quot;&gt;Duplicates inside the industry&lt;/font&gt;&lt;/b&gt;" style="text;html=1;align=center;verticalAlign=middle;whiteSpace=wrap;rounded=0;" vertex="1" parent="1">
          <mxGeometry x="150" y="40" width="260" height="30" as="geometry" />
        </mxCell>
        <mxCell id="wYbG2ShE4yD7E5KdKAoz-44" value="" style="shape=stencil(7VjLbttADPwaXYldcp/nNP2PAHFqo64dOG6b/H2puqtqKWnQAj20QG+KMiNyyeFjPcjdy/7heTewe7lezh93Xw+P1/0g7wbmw2m/uxyu+jTI/SB3T+fL7sPl/Pn0ePv7+WFEjk+fzl/GL7zeeFJJyshi9/bjjZDj72/e3wjHw2lGYE+VOwIzubBNCBRrh/eJstvGe5LQ4wOxbOMdOdfjfbO4gU/S4QtVvw0X4v7ziSRtwzPF1MEDOeCMFwo9nolR9B3F2OEdlQzwhYIYvAffl0SJDd6BZIVAKRt8BMmK3MIxZat9YB1fbHwEhj9pPH2HjxSB/1nVZtTsW8JXCcUtEsytgtYJTLWPUNSKQIRA2Qi0wAJTC6W3UD2VCA6dKfSarpEYRbUsLGSqKM2FfJ/mWimCPIdEobfgHVaeBKrBmvCg1LQSi7eHYFD5PpPvE1G1E6FiZsq9mKqjjCxwa7VTqhMVkAgfrUtF2putbp37VOcKMyeeXK9vVQuSa5ga1kTQDom0oR3RLwigJ6XY0jR3CVjIwbZ4PTQqiOJbXmdhhSUXWleZJS4jC9KGzEwaCTWmasemig/JO7OdgypvD86QFoN8LCBwhuhsb1VCBS5JoVQsAY1mnZ412jMgC762aTDrZALOoPM2m7D6ZnOdoK100Y1RWNcJyIJbDIhIBVRctGLVja38X8D+3gXMLlR/egFLBv8vLWC6T7FRG0NCTVY+6lECHmnPMQNKFYSa+2zzmBilZX3dRLGtdByjiDB5MKthATLVLhUNIVJAEypaXUgmBxKdC2VDKHAT1tWZxRIylkbkBQFUfkzN4xkBhTXoOOjFp+UEW6NKZxFWtE/99nX5Fwj68PN2/nQ4Hm+X+/n/7W1eX91+CZD7bw==);lineShape=1;strokeColor=default;" vertex="1" parent="1">
          <mxGeometry x="271.2267154218305" y="187.66665623822712" width="4.078049531667148" height="12.467246794663652" as="geometry" />
        </mxCell>
        <mxCell id="wYbG2ShE4yD7E5KdKAoz-48" value="" style="shape=stencil(lVbLctswDPwaXTEgQQLkOU3/IzNxak/dOOO4r78vXFWxCTnbyU2WsMaDu0tMcve6fXjZTJlfT8fD183P3eNpO8mnKefd83Zz3J38aZL7Se6eDsfNl+Ph+/Pj/Pvl4Rx5fvp2+HH+h18zTpS6nVGZf89vMkn9++LzHL/fPV/FVyGtQ3yj1N+P104lDfHJlow3AdbIQkGdMsjQCpURUBJxAYBGrQyAmpecNwHdP489aKEKhtQ7dR6H5FNSCNAxQ09UUUlK1kZAIUMZEmkfAUaF4VhbAPg5JHBwRjwCEjMxSOHcSBxTKCJTIhvJ1xtJBmyt1GQEKDECJOohgxALADDV8eSa99BgBtURoCRgrt6DBDIJZcANn9K/Ft8ATA2UpI3yKAjrJOAcTCmPJblqO2Cfk4ktZlCg0b7uIZEggC5EuJpSB+RzqpUAMGgbV2x+4wZTQTW50wUJyULg2wBZ2YCSIpFa5IYLwpBI+0pBnRo4OXPJ5QjoQEFujdxiSQ2QqdrS4lXTDfDb3bqvvI+R5JhsdXANucBHAUWiu6qfDCipMKVxrC5zRFfJVMeSpEIX8Hs8WJ+/MdCDxQRJF6e6XVG8H1KBHuD6HX0v+TkCZ+XFdy/XCaT2Sp1tEfg75eSxHIV7jAt3tMhCCSjZlpXlslUV0GtKccNICz9ux2ssh+GO5OnDTYtvZq+/aPx/xIUcb0H3bxT/wa3z//H+cFlxn3b7/bwhX3+PK7G/mtdpuf8D);lineShape=1;strokeColor=default;" vertex="1" parent="1">
          <mxGeometry x="448.72204042725025" y="178.7136736768249" width="5.7478313455867465" height="13.529085186169823" as="geometry" />
        </mxCell>
        <mxCell id="wYbG2ShE4yD7E5KdKAoz-49" value="" style="shape=stencil(7VjLbtwwDPyavRKSqOc5bf8jQDbNomk22KSvv+8Ihl2LXk+bWw+5ORuOKT5mSPmgNy8Pt8/HQ3Avr5fzl+OP093rw0E/HEI4PT0cL6dXPB3040Fv7s+X4+fL+dvT3fT382237E9fz9/7G35OOJ/El44K7tf0SwwSp18+TYDH09MKUCUZey/e7dtncTrYa5OQ9u2jqB/tF49X7YOU8TxaJPp9ey/JvD9Jjfv2TlIb7VVaZvaujvZeKjk/7N1gH5rkxuw1j/ZFEsknqjPmP6S/5DOM+Qwqte7bq5Qw2gdJJD9JdMwPTlhI/xTbn7BXUq8qbfP+RPqhJ3QsQJNEzoNymgCiBBIv6GEIA4eB5Aftko29Y/xa6Dfbo/+V2KOcY0P3FicHggOTIDBGiYcUbQkQkyctF5cOngE5SSQciJsalEJFC5pgWFmzKAGktAF4ySRLRS2PqxNP+qKpxE0MiTR2S3PfrwCZdEZD0GOlS6VBt2rrUJoUwv3WLKBniXjwbiN3Van8wkU1LjBRWBBN/Cjwtc4SuJemOhK0wifLa5YwFqI5aQwQ54m0ADzVgBasZgDgGGA5wOpIDIAQU7VZikxWq5RNHZjOAJBMpSGURIgBsJUO4hig2dEPyjlGOT8zckUINgtRB9ManXKMEFGKWgCbJuilFO2RHONDte1d+D4FPpiBDo6ygQJAGyc6KMo2vA4wHhId0QBE46HMYrgXtI5pRe2Vp7WOHsAHqpXJrqloFjbWOyC+BVAgAmN7t2UV2htBVgQq3TwxFfPIuJXcXt99wMhNmipxAUDZDK3Mtqs2q8oy2uu8MF6f1Mnut2mp5V7UJq9RZxJeByRpZqPn4roFeL5yb7cN7KCOHOnKkpsp5XBri2YnC3RSv9/C3m9h//MtzHs7/NGCbPiDgi3bjLIIfLMtBFKwEDpnR+nqNysGCHYv7GkgwhLUXt3U0RgAMFsbaM/2EQDymCWFgrMYdF5MF0CWwiZC2DCzSmZat6F+dBIYAPcoI/CeXvb89hMVKkPI7PPMrRWAxfDmj2b/AMDDn29096fHx+kT3/r/9psefpq+B+rH3w==);lineShape=1;strokeColor=default;" vertex="1" parent="1">
          <mxGeometry x="235.56277981174594" y="238.65550668707158" width="14.471858850461832" height="12.04232399275188" as="geometry" />
        </mxCell>
        <mxCell id="wYbG2ShE4yD7E5KdKAoz-51" value="" style="shape=stencil(lVfLctswDPwaXzEkQRLgOU3/IzNxGk/TOOOkr78vVJeKCEmb6U2WsCawABbggW9eH+9ejocUXt8u56/Hn6f7t8cDfzqkdHp+PF5Ob/Z04NsD3zycL8cvl/P35/vr75e7yXJ6+nb+Mf3DrysuUg0TKIXf/140SuXvm89X+6fT88K+kuTRPpHEffuYPaBS0337xP1zt0+kdd+emfL4/6G/2LTP5m5y9iHs25dIoTh/GrIXio6gSJkBQEnHDBgFggCVchsALJQBpRaCyACYggKAXIlHjqq5hACR4uiSZGooa0JtZFU/CDpRGGnV2s/crlOmJCsAKAwpFOMIKCSgE1qh2jwgCgAIheoBGZ2glNTHwKDZmvWuY0mogjwYQHkENGLgUgxzu3REi5SwT67hGvdc7gGCA2QchHjJsNQoqI1Wu2TNgNplcC/VnD0Alat57FmqUFabqVzxMUBarSGip1UQrZGKOyFSQ+VqgLE2WqCIWIq95+diUlyuqavKor4VAWw4rHsUBW0ksgekBEujrk5IqJakj4MFANKqK5ZsZOAereppFQxoozBZ4gqQ70kFRpcsM2iIGoBdeWeKWMnYnVB6de3RGl21VjhGp5ZfddwH8v1/ABsQxcmMUAJ5sBFUnZApFDIby17IWndye+4GL2QLfd4evHFD+lAQSSmOQVi5KlrgGuWRVxES0EG2waURUBW2HKuXvoIXINv56rgL5IIB1dc35z6UtgFKZWw5W6PRtmEu6ZjqyH2t2w56lqEFQIBLaVaVGWAVD4RpWvzFx1DQas9UVpsrmuzqWU3zkdsd59dQDnAm1v51YY/GSfGLhnVHABrDpCt/FChG8gvi5D/IsfXmih8GZRr6ljPbK1xAg+fz/Ta3Y+/4McbQpFqthsYYEvngC84YaNAfx/901wP8bN5twf9/fBe2h/eL9MPp6el6D19+9xdve3W9tPPtHw==);lineShape=1;strokeColor=default;" vertex="1" parent="1">
          <mxGeometry x="750.3912530937951" y="266.08590097002195" width="16.33187891721415" height="12.014231414521268" as="geometry" />
        </mxCell>
        <mxCell id="wYbG2ShE4yD7E5KdKAoz-52" value="" style="shape=stencil(lVfZctswDPwavWIIgudzmv5HZuLUnrpxxnGvvy9UjVQRlFfNmyxjBS6wODjIw/vx6e0wePd+u16+Hn6enm/HQT4N3p9ej4fr6aZPgzwO8vByuR6+XC/fX5+n329Po+X49O3yY/zCrwnnid0I8u739IID+fL3zefJ/nx6XdkXa58pyn1zTlRDY68O8317/Vzgxt6Rc/ftJRN7Y5+BfYiU7PkF2VeK7Xm4UgbxCdkSlkAxAoBYBuozBEi5lgaQPHngQQ/gWg958bkNYJLUAIqnArI2cmhJF6ECohQLJd8B+D4gJ5Jqj5QAh6qJlhbAFBMAqFKTBWRAumopFHukWAGgEkdLuoLiqYvUFoCyAplmt1TLgtD6BInYcKGKBwUxkmjDVJk8ItGFqWqYUFw1EbkFyJz8/0y1AhLiEEi8BTCKkmxwgABP0raN6ighDjzLf8lDgRWkgGxKLmExdZ1exeSAmBRQOrmixqRRqoaDNiZUcpHYFDXPqbwnjdgVNQRkKq47EiKtUU8daVyjtpPthLXa9r2XOAUYDjvSqHaG7omvUGy1tCfvbLvxXgElcsUCYIl+FJAzOdMEIgTE2gHKPMW2h1xX06t2u73M1Fn+KxceuNDlSEyqtT+Dsei197aJ0EEZkYdAofWQNExoIeu0EfUTaHkQG1cNXALakDRvbMvGpDsc2meSHXK6ZaI+oxxMc+UIR5AukaZtsMoL5EGX5tDOLP0EgyOVuaks9gluiVpwxj7PHjftEzFb+4rWVipmTS/kwPll3nRW30ctxs+TY8W3AHum0FaOj5SB6pzVkDJClebIG3sP66bbq0aP8Dz2WoV7tuuuGRmu6Gwn56hoVAIfvObt2+vDvzvly+l8nq6k6//tHVRfTfdXefwD);lineShape=1;strokeColor=default;" vertex="1" parent="1">
          <mxGeometry x="753.062465384306" y="293.523126472748" width="15.275556364731832" height="10.499017847452402" as="geometry" />
        </mxCell>
        <mxCell id="wYbG2ShE4yD7E5KdKAoz-53" value="" style="shape=stencil(lVjZbttADPwavRK75J7PafofAeLURt04cNzr78utINWk7CnyJsscLa8ZUprk4X3/9LabOLxfzqevu5+H58t+kk8T8+F1vzsfLno1yeMkDy+n8+7L+fT99Xn+/fY0LMfVt9OP8YRfM65QqQPE4fd8gxvl/vfO59n+eHi9sg8UgrGPlXq9b5+pZmsfKKX79npAbdYhKnzfXgJlG8Dq4U37FClFZx8F+B+X8Bb7RCUC+7Y8bg1YqGFAthnVEwKoQE7UbYZEqBcACCQuBKEMaiCdqnVJCoUMTijUuwVoVkHQpS5NtgbdqYEy1E5sYxCmDgBNAWwBegektRdKtnCpwhNi2HAhd9h7vfo01UgRkKcHz87GFACgNgq2N3qkAHqjCLHlpzrJoDc0Kc3y5yoPtxktS++sRxTo05CAYgGJKtCA2JekrACmCmodlaTJAlSVGgQEW7mmd1BzNOo2TS1TASdo0Nn2a5OFhbcB7JVVe4PRCdnLQIuUEUCzFDyggMIp6UvxLmWQJeWwE/uWlga+DUjElqStUEQuJWouaNVbIGUKKPaEwSBQBxXf7AACGSSaRNtLPWM+dBJbByUQgxjGUI8eAHtJfLcqQNAJOkWrjwEFrRTN2WcpYYpK8XVA7T0o6hjXqCGXmndJewmtJhqD53QiAVNOs9Q3fIAikBYVumJcBQRiFesNRVF7jzG7UQ1EoAFIHwGkDYFU+QStJ3lDUYFpLbptWKnUsYfGaNWNycZQGS65mkQ3sgrDbq11YfC6CshSmXsLULIx6GCtaMXK1G2lU4OtoXVwC1BmuOmqLnW3AGka0OpdlxF49e6Atr6xV1qXYoGLqD7PCZm+bTAau5tKq7Rl4JIu526ZjpkS6Fb9u2xigKqh3Zp9DBUBqq90xJurCpl7pWE8sgbAujSWCUCgoa026KFUyKXq34J0JqHBrmltlkC8MuRepdkBGi4c+/1epS2iE4IX4zGIwQnNb3DjABDzR1+9/2+vF//e818Ox+P8meD6f/9dQG/N3xTk8Q8=);lineShape=1;strokeColor=default;" vertex="1" parent="1">
          <mxGeometry x="215.09979188348564" y="463.07196538165033" width="11.948903857948304" height="13.294287506806809" as="geometry" />
        </mxCell>
        <mxCell id="wYbG2ShE4yD7E5KdKAoz-54" value="" style="shape=stencil(7VjLctswDPwaXzEkwQd4TtP/yEyc2tM0zjju6+8L1SUjQvI6mV5zUxSsiOdizQ3fvOzunreb4F5Ox8PX7c/9/Wm34U+bEPZPu+1xf9KnDd9u+ObhcNx+OR6+P92f/36+myynp2+HH9MXfp1xiUqcQMH9Pr8oJOXvi89n88f908w8eHJhsA9UgD1HcjzYO3Lusn1MJHWw9xTCZfuk9mz8T8A+98/172vAHgJSHgOuLQXrHuUWYANoTBWckJhiGQDJE0cACORkBDBxBgBHYYwhRaqgalHIj1maoqqwbEUsICcAUI/rAgCyFLXxTJYSjIGF6iLoAmLgQsHZtHrgEqc2KrPCOVA4Bbg0toZQQSdEEtNLmQI+wY/joIn+V5l1gNbVjwDf2nG9DplkJAzWLAGADlAcK60jmkEMRSeOLQAFXV2br+5SogxIpqoDJkuJIl8GeOfsUCehAPq7ZtsbGlYGtCFCaQQIQyYrucXYADUQg6hzoDzOaMWF4MVumOVhHRHaDPcjKuwm5VIJ1qcKfHrtnQ5ILXHrgNySMktTAjSgG9HwhlRIx3qC6SbJbQrXAWLpWEvNoNTsKJve8I2r1gFse6NUqpgGSrYAQSfUtjW7S93Jdd4IbcI6QOuACD8Sj2QpCdKxzjCbLAnUDktAVepB4iS2NdsBERLNFPQYg7Y3cmlKq2lvVRtgtU+FqxaABmhqDbYAqOC0ruYEaZLoYnsbnskUrwyQCbo7+cYR1RWA+HtJAlLg0ppoZuQliXDilMhMHXREka7kzkKzAQqoDqlJhdmIliv0/S5AWuiZ0ku5vlF0IMdKlwhP0J1l9EyOMEulb4O+dwMJ2Ls5W7muEgvRzLr6Br30ob7fqr6LDfpDff+v+tb9YHpJz6xox0VLxiFiCbfQ9z7jG4Fse8lLExPrYlpDdNYlpENVfpkQNM8ghNLE1MweNUZa2EeKqGpNl3d7xtvHFjl4ODuOxMTrGs9esDeTowXwoACL3zJaYXSj4ezy9AwvNLwlSK046tGw+L7Gi6jC5kfgDnnnDddVc314vUx72D8+nu/i5v+3l2/66nxxx7d/AA==);lineShape=1;strokeColor=default;" vertex="1" parent="1">
          <mxGeometry x="211.8129521306713" y="490.90069160397945" width="11.257044115824876" height="10.865094299198331" as="geometry" />
        </mxCell>
        <mxCell id="wYbG2ShE4yD7E5KdKAoz-55" value="" style="shape=stencil(7VjLbhsxDPwaXwmKelHnNP2PAHFqo6kdOO7r78utIXfF9U6bY4Hc1mvNUiSHQ0qbePe6e3jZboRfz6fj5+33/eN5t4kfNiL7w2572p/taRPvN/Hu6Xjafjodvx4eL79fHqaV09OX47fpCz8uuJIo1wkl/PPyJkRq7febjxfA8/4wA+RMmQeABJp+rgFSoFAGQMwkYR0QhVQGQIrd5k2AJEo6ALJQyusAczGNPphXAgBSqI4WUiMFUTKnUxoBlRJw2jaQxjykTCWuA0pdbClRBYBaSF0eCqUCAJXCaCEGYuC0AerotChVZEGpOUChArikTNWRz5wGW1KhNnJJIsUKAIs8COaSKgl7AIpSY2rZAwQBjP3F+8AgrC13bs6iFBMA1B7EWR4YRKk1Cs4HpQDIZ4AWRi4xJZDpwEw8xnXSBaACZoJHJ5IlHzlxJedMNhqyYD6OFkqmCrhhiXAF0QIVBEg+TPYmA9kwbvBI11agfBv7nPSZVwoyp9U7bYFWQCaNXpim5OOizsEDGERp0pk4Airkd13mIXXluQ1IC4BAfhtAR4C2Hrc1NeZRmNTUGFlQ30Y1UUB5MLF2WxLKSMlMJJyFQIoAlofqLfxN+sZMG1lQ3zV6p1FnTJ/RsGEVF0Zq6LVPrpaoKyCmglQjU3RsNX3G8u3E1UoU+hB6h5qVaAS6pNe/ZwVUgGroQmZmcrtGJteDzERCFaSUnQpUKExWEN6JDPXeSq4Vn4iAAcVtiXtNvQEAuDH5MJacNYgC2FcXndpaEGLfBHBzpeAtvQ9x70PcfzTE6eLchE+XFldxFWTcAACjaxwLooReIrdPZupPyEV6z7h99steNuyQjeTYYiJj07LDnQALofmSq4zHkx6Sq4EGK26RtoJHB/H1lhnOV80nzVQMFUNQYqdiV5NrB3aXNKseBlmONsC5e5ACQ5pkMThgGomPKVYYo7FTeoanmZw9J5gEhNRoHapbjyaAwv3+YvZ9QOqJMeLWK9i/1UgcORG6xN5enxdi1D9we72di9wlEYy/lWB2vRzGf1rvhuG+wbX1PDaEwLAmzQE3z4driNci+rarvX8A2MOfm8Sn/fPz5SJy/r+/ebRXl1vLeP8L);lineShape=1;strokeColor=default;" vertex="1" parent="1">
          <mxGeometry x="187.84534066432195" y="159.26571950922232" width="10.24133589173255" height="11.898313108449571" as="geometry" />
        </mxCell>
        <mxCell id="wYbG2ShE4yD7E5KdKAoz-56" value="" style="shape=stencil(lVfbjhoxDP0aXq0kjnN53m7/Y6VlCypdViy9/X09QhmwGQ5F4mGYyUns49vJip8+Ny8f61UKn8fD/vv69/b1uFnxl1VK2/fN+rA96tOKn1f89LY/rL8d9j/fX0//P16mldPTj/2vaYc/J1wO1POESuHv6U2MNP3V39cTYLd9vwCwUIwW0En6bUDqlJsBpDa2WAYwhWQAXEnqbUCsFIMB5EIlA0Cibk+QjE3KlK3TuY83t1gStoBKFdCahXq3AKEKnFaLU7UApgicLkxFPK1JAKB7WqfAtduApqlhTVLeGt8G9EjRmVSoBgBgEgvIjRICiE/vorEHtPY+Pg+AGtkLBDQbuK6RASwpIFgfeqEMAterd7qr0wggVwDNVuQDj0SYazoECohXbRvBH1FBF2iNavZONJB9rQ4DZkCFvGr2Nee1wPxWQLY12nFuKKDaTqY0FGRS8SYpDQW0Df0sliXdogNaJwOKBWjGo+zT5ho9oKAThDh5kyKgVcPEzqQ6tlgGNN+Nm5bInZJzgYuwC1xk84zQTgIC0btv+MpDRV43PxaVB8hroWRp0jMjapaZAntARzUaqdQrAOgbSntOHoAajQZWkne6oQrS1Cme1jsll1135dFIHgCgLhDGXJ4nRIFztGpRWx8kQfFQ2bcNzkMSLZuUR7eeATJKZPmENqbmPBYzMaC1aHO1JqmcEHCCdF9AgiOt+sidUMLgbVkx6Uyz6a2CJSBdqZ3RVlwR3AVUFLoTVG0Ak3Twu/V4sl81mTybuMwRNadzG1wfgx8nqq3LHWFsx4namO5I76vbAKMgNC+XeMR9Ocph9Lj5ACgbOJLYNFIOkO7mcXk5r0cOayX24tYj3TPp0/jI/o1YvP2gznhWUWd+GrBnur45BT1E+/L6OC4Vc45SAfbkNBT/XAPEaP+r9W1c5m7a4wYCnJoPX1f/A6AP59vx23a3O12uL7/727S+Ot3E+fkf);lineShape=1;strokeColor=default;" vertex="1" parent="1">
          <mxGeometry x="237.8504289052354" y="435.4209010832386" width="13.037455499225803" height="13.280747680338308" as="geometry" />
        </mxCell>
        <mxCell id="wYbG2ShE4yD7E5KdKAoz-57" value="" style="shape=stencil(lVfLctswDPwaXTEkQRLkOU3/IzNxak9dO+O4bfL3haqRKkD2dnKTKa6Ix+6CHvjhbf/0uhtSeLtezt93vw/P1/3AX4aUDqf97nK46tPAjwM/vJwvu2+X88/T8/T79WncOT79OP8av/A+4UqjXEdUCh/TSqYa/i58nfYfD6fV/top2f2Rqct9gDTqyQD0hMb3Aa2QsAHwsnIT0CNlC8gFntAzFRtS0ZASAAh1e0IVknofEEOgEAxChHIGWef59QzQKKUDQKBkY+oVJiFMoViA9h50rjJVB+hUAKDoCbauqzrcROTk2aRHCEiCE5Xok0CdULJJswChFEHrOrVuAYUS6FxsxK5zWgcUUiB2OYT5zNuAMpd9BrQGNcdMxebQlH0N9IG9IlqFNqCC4Q0gI99QhYkHdETX7OmqSQcsiG7L2rSVICSVnNgc1EkaaJw6U7SiVo2iTrdI3XGpUkRmufG+0XqQRuv8eiWghDSqfWUP6MAs1Uu9gDpkq7p12QBiAfQWCuKTFsDWFCk61ygwh7gY3UqiiBpxKeKKGkgPnwZw9poeBwTStDLHslVnUAfk40XBy5QrlFHjNhLNMhf6dh80aRsSCyRfShQsNcbeA2pELaIFxArnQ5hn5lJVYpDBZkoX6EnqMNbpM3RVNVW7nSkClgpVd7Oaj7tdm808D7Pb3KNojm4/g3BSJRa3H83ycej47wdQzBwoJx8PmlHa+ejqE5DTKdnsfl0A9VRndGRgOPc/e3P+/359+HdNfzkcj9Mtf/3eX+t1afpLwI9/AA==);lineShape=1;strokeColor=default;" vertex="1" parent="1">
          <mxGeometry x="253.9210888708451" y="405.2229891500067" width="3.1419019850161725" height="15.463393016970324" as="geometry" />
        </mxCell>
        <mxCell id="wYbG2ShE4yD7E5KdKAoz-63" value="&lt;font style=&quot;color: rgb(0, 204, 0); font-size: 18px;&quot;&gt;&lt;b style=&quot;&quot;&gt;They all are different&lt;/b&gt;&lt;/font&gt;" style="text;html=1;align=center;verticalAlign=middle;resizable=0;points=[];autosize=1;strokeColor=none;fillColor=none;" vertex="1" parent="1">
          <mxGeometry x="410" y="565" width="200" height="40" as="geometry" />
        </mxCell>
      </root>
    </mxGraphModel>
  </diagram>
</mxfile>
